<svg id="Layer_1" data-name="Layer 1" xmlns="http://www.w3.org/2000/svg" viewBox="0 0 700 500"><defs><style>.cls-1{fill:gray;}.cls-2{fill:#ff0;}.cls-3{fill:#f0f;}.cls-4{fill:aqua;}.cls-5{fill:#29abe2;}.cls-6{fill:lime;}.cls-7{fill:#ff7bac;}</style></defs><title>mood-music</title><path class="cls-1" d="M232.1,124.6c-23.3,5.5-46.5,17.4-70.5,19.5-26.4,2.3-34.2-16.3-38.7-38.3-.4-2-1-4-1.4-6.1.9,4.9,1.7,9.8,2.8,14.3,4.9,18.4,13.7,32.6,36.9,30.6s47.1-14,70.4-19.4c20.4-4.8,115.1-18.7,101.3,25l-3.3,4.2c12.8-45.6-78.7-31.4-101-26.2s-46,17.2-69.5,18.8-31.7-12.7-36.5-30.8c-1.2-4.8-2.4-9.7-3.3-14.9.8,4.6,1.4,9.2,2.5,13.5,4.7,18.9,13.2,34.3,36.8,32.7s46.7-13.2,69.4-18.6,112.1-19.7,100.9,26.3h0l-3.4,4.4c10.3-47.3-74.8-33.6-100.4-27.5-22.4,5.3-45.4,16.9-68.6,17.9-26,1.3-33.5-18-37.8-39.5-.5-2.5-1.1-5-1.6-7.6.3,1.9.5,3.9.8,5.7,4.2,22.4,11.3,43.1,38.2,42,23.1-1,46.1-12.5,68.4-17.8,26-6.2,110.4-19.9,100.3,27.8l-4,5.3c3.1-16.6-.2-25.2-17.1-30.5-26.2-8.2-56.4-4.6-82.6,1.6-21.8,5.2-44.7,16.4-67.4,16.8s-31.5-15.6-35.9-34.3c-1.1-4.9-2.2-9.7-3-14.7.9,5.7,1.8,11.7,3.2,17.2,4.5,17.8,13.1,32.7,35.3,32.4s45.5-11.5,67.2-16.7c26.1-6.1,56.2-9.7,82.3-1.6,17.1,5.3,20.4,14.1,17.3,30.8l-3.6,4.9c2.9-17-.1-26.6-17.8-32-25.8-7.9-55.5-4.2-81.1,1.9-21.4,5-44.2,15.9-66.4,15.7s-30.2-15-34.7-32.5c-1.5-6-2.7-12.1-3.7-18.2.8,5.3,1.6,10.9,2.8,16.1,4.3,18.6,12.5,34.9,35.2,35.2s44.9-10.5,66.2-15.5c25.6-6.1,55.2-9.8,80.8-1.9,17.9,5.4,20.8,15.1,18,32.3-7.7,10.7-15,21.7-21.8,33,2.1-19.2.9-34.1-20.5-39.4-23.9-5.8-49.9-2-73.4,3.2-19.1,4.3-41.1,13.1-60.9,9.7-22.1-3.9-29.5-23.4-33.1-43.1q-1.6-9-2.7-17.4c.8,6.5,1.5,13.9,3,20.9,3.8,18.7,11.5,36.6,32.5,40.3s41.7-5.2,60.7-9.4c23.4-5.3,49.4-9.1,73.1-3.3,21.7,5.3,22.8,20.3,20.6,39.5l-3,5.2c2.1-19.6,1.2-35.4-21-40.6s-48.9-1.5-72,3.7c-18.7,4.2-40.5,12.5-60,8.7s-28.5-22.3-32.3-41.2c-1.4-7.2-2.4-14.3-3.2-21,.7,5.8,1.3,12.2,2.4,18.4,3.5,20,10.8,40,32.8,44.5,19.4,4,41.2-4.3,59.8-8.5,23.1-5.1,48.5-9.2,71.9-3.8s23.1,21.1,21,40.8c-1,1.6-1.9,3.3-2.8,4.9,2-20.1,1.4-36.6-21.4-41.7s-48.1-.8-70.8,4.3c-18.4,4.2-40,12.1-59.1,7.8-22.7-5.1-29.7-26.7-33.1-47.6-.9-5.6-1.6-10.8-2.2-15.9.6,5.6,1.2,12,2.3,18.2,3.4,20.3,10.6,41,32.7,46.1,19,4.4,40.7-3.5,59-7.7,22.6-5.1,47.5-9.4,70.6-4.4s23.5,21.7,21.4,41.8l-2.8,5.1c2-20.4,1.6-37.8-21.9-42.6s-47.2,0-69.4,5.1c-18.1,4.2-39.6,11.8-58.3,7.1-21.9-5.5-29.2-26.3-32.7-46.7-.3-1.8-.6-3.6-.8-5.3-.7-4.6-1.3-8.7-1.8-13,2.9,24.6,6.3,58.5,35,65.8,18.7,4.7,40.1-2.9,58.3-7,22.1-5.1,46.5-9.9,69.2-5.3S285,204.5,283,225l-2.1,3.9c2-20.8,1.7-38.7-22.3-43.2s-46.5.9-68.4,6c-17.9,4.3-39.2,11.6-57.7,6.7-24-6.4-30.4-31-33.6-53.3-.6-4.5-1.3-8.6-1.7-12.7.5,5,1,10.7,1.9,16.1,3.3,21.6,10.2,44.5,33.2,50.7,18.5,5,39.7-2.4,57.7-6.6,21.8-5.2,45.6-10.5,68.1-6.3,24.2,4.5,24.4,22.6,22.4,43.5-1.5,23,.8,43.3,20.4,58.4a77.7,77.7,0,0,0,19.3,10.9c-8.4-.9-16.6,2.8-20.4,9.4a18.6,18.6,0,0,0-1.6,14.5,10.6,10.6,0,0,0,6.1,6.5,17.4,17.4,0,0,0,6.5.9,13.2,13.2,0,0,0,5.1-1.2,10,10,0,0,0,4.9-6.1,7.5,7.5,0,0,0-.8-6.1,8.3,8.3,0,0,0-6.7-3.2c-1.6,0-6.6,1.9-2.9,6.9-2.6-4.6,1.6-5.5,3-5.5a7.4,7.4,0,0,1,5.4,2.6,5.9,5.9,0,0,1,.6,4.9,8.4,8.4,0,0,1-4.2,5.2,14.8,14.8,0,0,1-10.4.3,9.2,9.2,0,0,1-5.2-5.7c-1.4-3.9-.1-9.6,2.4-13.5,6.1-9.5,20.1-8.3,27.9-6.8l4.8,1.1h.4a43.1,43.1,0,0,0,7.9,1.2c13.6,1.4,30.1,2.4,43.5-2.2,27.3-9.3,40.3,17.8,39.3,27.1-1.5,13.9-14.3,17-20,26.4,1.5.4,49.5-3.2,71.8,35.3,2.7-5.1,10.6-27,21.8-36.1,4.1-3.4,7.2-4.2,11.1-4.2s13.5,2,27.3,1.2c10.5-.6,13.5-5,15-8.7.4-.9.6-2,1-3.1,1.3-3.7-2.2-7.7-2.2-10.9s2.1-5.2,4.3-6.3a5.2,5.2,0,0,0,2.2-4.2c.2-1.5-.6-3.1-1.9-4.6a10.8,10.8,0,0,0-3.7-2.2c.4-.1,1.3.5,2.3-.1a8.6,8.6,0,0,0,4-9.2c-.9-.8-4.8-8.4-.5-11,1.4-.7,5.3-1.2,8.2-3.9s4-5.8,2.4-9.1-6.6-4.9-10.6-10.6c-2.6-3.8-10.4-12.3-11.7-18.6-.4-2,0-8,.3-12.3s-1.2-15.9-4-24.7-4.7-12.4-8.4-19.8c-17.1-33-50.6-29.4-63.5-32.3-18.7-4.1-47.7-8.7-63.7,6.2-2.5,2.3-4.3,5.3-6.1,8.3a25.6,25.6,0,0,1,3.6-4.4c14.9-13.6,37.6-6.8,55.1-2.3-15.8-2.9-33.7-6.2-48.7,0-6.6,2.8-9.9,7.8-13.4,13.1l.9-.9c15.3-15.3,39.3-7.5,57.5-3.4-19.3-3.9-42.9-10.6-58.6,5.4-6.2,6.4-8.3,16.7-17,20.6-13.3,6-36.6-6.4-46.1-14.7s-11.6-17.2-9-28.5l3.4-4.4c-3,10.9-.5,20.4,7.9,28.1s32.6,21.5,45.7,16c5.4-2.2,8.1-7.1,10.9-11.8l-.8,1c-9.7,11.7-21.1,8.7-34.4,3.5-17.4-6.8-33.6-17.5-28.6-37.7l3.2-4.2c-4.3,13.8,2.4,23.6,14.1,30.8,10,6.1,30.1,16.7,42.2,9.7,3.7-2.2,6.1-5.8,8.3-9.5a21.7,21.7,0,0,1-6.7,6.8c-12.3,7.3-32.5-2.8-43-9s-18.6-16.1-14.2-29.6C347.6,106,252.2,120,232.1,124.6Zm61.8,82v-.3c6.9-11.3,14.2-22.4,21.8-33.1h0c-5.4,29,21.5,56.7,49.5,53.8,12.1-1.3,15.2-20,27.1-20.4,5-.2-6,9.4-11.4,14-1.9,1.6-5.3,4.7-8.2,4.6,5.4.7,8.4-3,12.6-6s10.5-5.6,15.8-5.2c1.3.1-6.3,3-11.2,5.3-7.4,3.4-10.3,14.9-39.2,22.8s-39.9-26.7-39.9-26.7-2.6-10-2.5-14.6c-.2,3.9-.2,18.7,8,29.8,9.7,12.9,19.4,20.1,42.9,11.4s23.2-11.9,29.6-15.3c2.5-1.4-7.2,8.2-11.1,11.7,4.2-3.4,10-5.1,15-6.2s-2,4.6-7,7.9c-12.1,7.9-23.1,27.9-38.1,28.9C312.5,271.4,290.7,238.5,293.9,206.6Zm-7.1,11.8c1-1.6,1.9-3.3,2.8-4.9v.2c-1.3,18.8-.3,35.5,14.3,49.3,10.9,10.3,28.5,19.4,44.2,17.1,7.2-1,18.2-9.8,24.9-12.5,11.7-4.7,7.4.1-4.7,5.8-6.9,3.3-13.4,7.7-21,9.2-15.9,3.2-33.6-5-45.2-15.4C287.2,253.8,285.9,237.2,286.8,218.4ZM370.9,295c-9.2,2.1-18.3,4.9-27.9,4.9-14.6,0-29.6-5.5-41.3-14.2-19.4-14.5-22-33.9-20.8-56.5l2.1-3.9c-2.9,32.3,10.4,58.5,44.1,67.9,19.8,5.6,38-2.6,57-5.8,2.4-.4,6.3-.1,10.9.4-4.4,1.8-10.3.9-14.2,4,4.6-2.4,9.7-1.9,14.7-1.1A234.6,234.6,0,0,0,370.9,295Zm20.3-13.2c-19.1,3.4-38.5,14-58.6,10.6-36-6.1-52-34.6-49.1-68l2.8-5c-1.2,18.1-.7,35,12.6,48.9,11,11.5,28.4,20.3,44.7,20,8.9-.2,17.1-3.9,25.5-6.4C382.9,277.7,395.3,281,391.2,281.8Zm-20.1-18.6c-6.7,3.7-15.9,11.3-23.7,12.6-13.9,2.4-29.6-5.3-40-13.7-16.3-13.2-18.3-29.7-17.2-49.4v-.2c1-1.7,2.1-3.4,3.1-5.2v.3c-3.6,31.1,13.3,61,47.7,64.6,11.5,1.2,18.7-4.6,28.3-9.7,7.8-4.2,18.2-12.6,25.2-13C399.2,249.2,384.5,255.9,371.1,263.2Zm22.7-73.4c12.6-12.2,30.8-9.2,46.8-5.7-13.4-2.6-28.2-3.9-40.2,2.1-5.1,2.6-8.6,6.4-11.6,10.3A36.5,36.5,0,0,1,393.8,189.8Zm5.1,1.4a35.4,35.4,0,0,1,14.9-2.4c-3.3.5-6.8,1.4-9.2,3a16.4,16.4,0,0,1,6.6.3c-8.4.8-16.4,3.5-23.1,10s-8.6,15.2-16.8,18.7c-13.5,5.6-35.7-7-44.9-15.6s-11.2-19.8-10-32.9h.1l3.6-5c-4.4,25.1,13.6,39.9,36.7,47C382.2,222,380.6,199.1,398.9,191.2Zm-65.8.1c8.8,8.2,31.8,21.8,44.9,16.6a14.1,14.1,0,0,0,4.1-2.5c-4.8,5.5-10.6,9-22.2,6.2-23.1-5.7-43.2-20.3-39.1-45.4,1.3-1.8,2.6-3.6,4-5.3C321.9,172.5,324.3,182.9,333.1,191.3Z"/><path class="cls-1" d="M283.6,170.9c-1.4-1.1-2.9-2.2-4.3-3.5-3.8-3.4-6.7-10-4.5-15.3,1.6-3.8,4.7-7.8,10.6-5.5a9.5,9.5,0,0,1,5.2,5.7,4.1,4.1,0,0,1-.7,4.1,5.3,5.3,0,0,1-5,1.2c2.2.6,4.3.6,5.5-.7s1.4-2.9.8-4.8a10,10,0,0,0-5.5-6.2c-5-2-9.1.1-11.5,6s.6,12.4,4.6,16a48.2,48.2,0,0,0,4.4,3.5c3.7,2.9,7.2,5.5,8.9,10.3l1.2,1.9C290.9,176.3,287.4,173.8,283.6,170.9Z"/><path class="cls-1" d="M230.1,167.1c-2.3,1.8-5.7,6.2-4.7,10.5a7.1,7.1,0,0,0,7.1,5.1l.9-.2a6.2,6.2,0,0,0,5-4.8,3.6,3.6,0,0,0-1.3-3.5,5,5,0,0,0-5-1,5.2,5.2,0,0,1,4.5,1.5,3.2,3.2,0,0,1,1.1,2.9c-.3,2-2.4,3.1-4.6,3.6s-6.3-.8-7-3.8,2.5-7.3,4.7-9.1c4.2-3.3,12-3.8,16.7-3.8l-2.4-.6C240.3,163.9,234.5,163.6,230.1,167.1Z"/><path class="cls-1" d="M387.1,189.9l-1.6.4c3.7-.4,7.2-1.7,10.6-2.8Z"/><path class="cls-1" d="M375.5,190.2a21.1,21.1,0,0,0,10,.1,17.4,17.4,0,0,1-5.1-.1c-4.6-.8-8.7-3.3-10.1-8s.7-10.3,4.9-12.2a5,5,0,0,1,6.6,6.6c-.7,1.8-3.3,4.4-5.3,3.8s-1.6-2.5-1.2-4c-3.8,3.8,2.9,6.8,5.9,4.3s3-8.9-.8-11.1-10.6.9-12.4,5.5C365.5,181.2,369.5,188.3,375.5,190.2Z"/><path class="cls-1" d="M374.8,170.8c1.6-.7,4-.5,4.8,1.3-.3-2.2-2.8-3.1-4.8-2.6s-5,3.4-6.8,5.8l2.6-.7C371.8,172.9,372.8,171.6,374.8,170.8Z"/><path class="cls-1" d="M330.1,230.3c1.8-1,4.9-.5,6.7.2,3.4,1.3,5.4,4,8.1,6.1a12.5,12.5,0,0,0,8.3,2.8l1.7-.3c5.1-1.1,10.3-4.6,14.9-7.7,1.6-1,4.7-2.3,6.2-3a39,39,0,0,1,8.7-2.7c6.2-3.8,5.2-6.7,12.2-7.8v-.7c-7.2,1.1-15,5.9-21.3,9.7l-1.5,1-4.6,2.9a39.5,39.5,0,0,1-14.2,6.1,11,11,0,0,1-9.3-1.9c-3.1-2.4-5.6-5.1-5.7-8.8a10.7,10.7,0,0,1,5.2-8.7c2.9-1.9,6.1-1.1,8.8.2s5.7,4.2,4.8,7.9a7.1,7.1,0,0,1-3.5,4.3,7.5,7.5,0,0,1-6.2.3,7.5,7.5,0,0,0,6.5.3,7.3,7.3,0,0,0,3.9-4.8c1-3.9-1.8-8-5.1-9.7a9.8,9.8,0,0,0-9.6.9c-3.4,2.1-5.6,5.8-5.5,9.3a11.8,11.8,0,0,0,1.4,5.5c-3.1-2.7-7.2-4.8-11.2-2a17,17,0,0,0-3.1,4.1A19.3,19.3,0,0,1,330.1,230.3Z"/><path class="cls-1" d="M257.1,293.6h-2.8c-5.5-.8-10.2-6.1-12-13-3.9-14.4,2.7-22.7,7-26.4,6.3-5.4,15.6-7.4,21.5-4.8,10.7,4.9,15.5,18.3,15.6,18.4l-1.7-.2c0-.2-4-11.6-14.4-16.3-5.7-2.6-13.8-1.1-20,4.1-4.1,3.6-10.1,10.9-6.3,24.9,2.3,8.4,6.1,10.9,9.8,11.5,6.1.8,13.3-2.8,16.8-8.5,2.5-4.1,2.8-8.6.3-12.2a12.4,12.4,0,0,1,.4,13.6A18.6,18.6,0,0,1,257.1,293.6Z"/><path class="cls-1" d="M120.9,193.8l.3.2c6.2-18.8,14.4-34.9,27.7-49.7h-.3C134.9,158.2,126.9,175.5,120.9,193.8Z"/><path class="cls-1" d="M275.2,193.2c15.4-22.7,33.7-46.4,56.1-62.5h-.1c-22.4,16-40.8,39.8-56.2,62.4Z"/><path class="cls-1" d="M239.7,184.9h.5c17.5-24.2,38.3-47.3,63.6-63.5H303C277.8,137.6,257.1,160.6,239.7,184.9Z"/><path class="cls-1" d="M202.3,189.3h.5c11.2-25.1,26.3-48.4,46.1-67.6h-.7C228.5,141,213.5,164.2,202.3,189.3Z"/><path class="cls-1" d="M154.5,199.5h.4c7-22.2,17.3-43.9,32.8-61.5h-.5C171.7,155.6,161.5,177.3,154.5,199.5Z"/><path class="cls-1" d="M134.4,129.9a79.3,79.3,0,0,0-7.1,6.1,1.7,1.7,0,0,0-.7-1.4,1.4,1.4,0,0,0-2.1.3,1.6,1.6,0,0,0,.5,2.2,1.5,1.5,0,0,0,2.2-.3,47,47,0,0,1,5.8-5.2,31.2,31.2,0,0,0,3.4,5.4,61.1,61.1,0,0,0-5.8,5.6,1.7,1.7,0,0,0-1-1.1,1.9,1.9,0,0,0-2.2.7,1.4,1.4,0,0,0,.8,1.9,1.8,1.8,0,0,0,1.7-.3l.5-.5a58.2,58.2,0,0,1,6.2-6,16.5,16.5,0,0,0,3.9,4,79.2,79.2,0,0,0-7.7,8.4c0-.4-.4-.7-1-.8a2.3,2.3,0,0,0-2.3,1.1,1,1,0,0,0,.9,1.6,2.7,2.7,0,0,0,2.2-1,66.1,66.1,0,0,1,8.2-9.1,17.7,17.7,0,0,0,4.3,2.8,72.7,72.7,0,0,0-9.5,11.4c-.1-.4-.5-.6-1.1-.6a3.1,3.1,0,0,0-2.4,1.5c-.4.9.1,1.5,1,1.5a3.5,3.5,0,0,0,2.4-1.7c4.4-6.3,6.7-9.1,11.5-13.6C140.9,140,138.3,137.8,134.4,129.9Z"/><path class="cls-1" d="M142.8,111.7l-1.6,1.1-.5-1,1.4-1a.9.9,0,0,0-.1-.5l-1.6,1.1-.3-.7-.3.5.2.5-2.2,1.6-.4-.6a1.3,1.3,0,0,1-.3.5l.3.4-1.1.9c0,.3.1.4.1.6l1.3-1,.6.9-1.3,1c0,.3.1.4.1.6l1.5-1.2a3.3,3.3,0,0,1,.3.6l.4-.5-.3-.4,2.1-1.6a1.3,1.3,0,0,0,.4.6l.3-.4-.3-.5,1.4-1A.9.9,0,0,0,142.8,111.7Zm-4.1,3-.6-.9,2.2-1.7.5,1Z"/><path class="cls-1" d="M126.2,106.2c-.8-.3-2.7,1.2-4.6,3.2l-.7-1c-1.3-1.7-2.7-3-4.9-.6a8.2,8.2,0,0,0-1.8,4.1,11.5,11.5,0,0,0,.3,5.2c.1.5.3.9.4,1.3-1.8,2.8-2.6,2.6-3,1.8a4.5,4.5,0,0,1-.4-2.3v-.6a1.2,1.2,0,0,0,.5.8c.5.2,1-.5,1.1-1.4a2.6,2.6,0,0,0-.5-2.3c-.5-.2-1,.4-1.1,1.4a9.8,9.8,0,0,0-.4,2.1,6.5,6.5,0,0,0,.5,2.9c.7,1.4,1.9.6,3.5-1.9l.9.9c.7.3,2-.4,2.8-2a9.5,9.5,0,0,0,.5-3.7,3,3,0,0,0-.2-1l1.7-1.9a3.4,3.4,0,0,0,3.1,1.4c1.2-.1,4.4-2.9,3.9-5.1S127.1,106.5,126.2,106.2Zm-8.1,11a2.6,2.6,0,0,1-1.9,1.6c-.3,0-.5-.2-.7-.5l.4-.6a44.8,44.8,0,0,1,2.6-3.8c.1.2.1.5.2.8A5.7,5.7,0,0,1,118.1,117.2Zm.8-4.7-.9-.8c-1.3-.5-2,2.2-2,2.2s1-1.8,1.6-1.6a1.3,1.3,0,0,1,.7.9c-1.5,2-2.5,3.8-2.6,3.8a3.6,3.6,0,0,1-.5.9,8.3,8.3,0,0,1-.4-1.2,10.7,10.7,0,0,1-.2-4.7,5,5,0,0,1,1.4-3c1.9-2.2,3-.1,4.2,1.4l.2.3Zm4.9-.9c-.6,0-1.2-.7-1.9-1.7a13.1,13.1,0,0,1,3.3-2.6c.8-.3,1.4-.5,1.7.7S125.7,111.4,123.8,111.6Z"/><path class="cls-1" d="M200.1,107.8c.8-1-.1-3.4-2.4-5a15.2,15.2,0,0,0-5.8-1.9,4.3,4.3,0,0,0-1.6,0,40.3,40.3,0,0,1-2.6-3.2c1.7-1.1,3-2.4,3.2-4.6s-3.4-7.7-7.2-7.6c-1.3.1-1.6.9-2.5,2.2s1.2,4.6,3.9,8.3l-1.9.8c-3,1.6-5.5,3.5-2.2,7.6a13.8,13.8,0,0,0,6,4,21.6,21.6,0,0,0,8.4,1.1l2.2-.4c3.9,3.6,3.4,4.9,2,5.4a7.7,7.7,0,0,1-3.7,0l-1-.3a1.8,1.8,0,0,0,1.4-.5c.4-.7-.5-1.7-2-2.2s-3.2-.4-3.7.2.3,1.7,1.9,2.2a14,14,0,0,0,3.3,1.1,9.3,9.3,0,0,0,4.7,0c2.5-.7,1.5-2.8-2.1-6.1A4.5,4.5,0,0,0,200.1,107.8ZM182.8,89.6c-.2-1.4-.5-2.4,1.6-2.5,3.8-.1,5,2.8,4.8,5.9-.1,1-1.5,1.8-3.1,2.5C184.3,93,183,90.7,182.8,89.6Zm12,19.2a16.8,16.8,0,0,1-7.4-.9,8.9,8.9,0,0,1-4.5-3.1c-3-3.8.6-4.9,3.5-6.4l.4-.2a35.8,35.8,0,0,0,2.6,2.9,4.2,4.2,0,0,0-1.6,1.3c-1.2,1.8,2.9,3.8,2.9,3.8-1.7-.9-2.5-2.1-2.1-3s.9-.8,1.7-1c2.8,3,5.2,5.1,5.3,5.2l1.3,1.1A6.6,6.6,0,0,1,194.8,108.8Zm2.9-.6-1-.8c-.9-.8-3-2.8-5.3-5.3h1.3a6.7,6.7,0,0,1,3.9,1.6c1.4,1,2.3,2.6,2,3.5A1.7,1.7,0,0,1,197.7,108.2Z"/><path class="cls-1" d="M91.5,117.5A141,141,0,0,0,85.6,132l-.3.8.2.5c.1.1,1.6,2.9,2.8,1.1a7.8,7.8,0,0,0,1.1-2.7,9.8,9.8,0,0,0-.1-3.9,2,2,0,0,0-.9-1.7c1.3-3.1,1.9-4.6,3.3-7.5A3.6,3.6,0,0,1,91.5,117.5Zm-2.6,11.1a6.3,6.3,0,0,1,0,2.4,3.4,3.4,0,0,1-.7,1.6c-.7.9-1.6.3-2.1-.4l1.8-4.7C88.2,127.5,88.7,127.6,88.9,128.6Z"/><path class="cls-1" d="M97.3,115.9A126.5,126.5,0,0,0,91,129.2l-.3.7.2.5c.1.1,1.8,2.7,3,1.1a6.5,6.5,0,0,0,1.3-2.5,10,10,0,0,0-.2-3.6,2,2,0,0,0-.9-1.6c1.3-2.8,2-4.2,3.4-6.8C97.4,116.6,97.4,116.3,97.3,115.9Zm-2.8,10.2a3.9,3.9,0,0,1,.1,2.2,3.1,3.1,0,0,1-.8,1.5c-.7.9-1.7.2-2.2-.4s1.1-2.6,1.9-4.3C93.8,125.1,94.4,125.2,94.5,126.1Z"/><path class="cls-1" d="M194.2,134.2l-.5.2a79.3,79.3,0,0,0-6.8,7.9l-.4.5.5-.3a39.7,39.7,0,0,0,4.5-3.3,8.7,8.7,0,0,0,1.4-1.6c.2-.5-.3-.4-.7-.3a8.2,8.2,0,0,0-1.7,1A50.6,50.6,0,0,1,194.2,134.2Zm-2.6,3.7c.2,0,.5-.1.4.2l-.9,1a20.5,20.5,0,0,1-3.4,2.6c.9-1.1,1.3-1.7,2.2-2.7Z"/><path class="cls-1" d="M93.5,134.7a146.7,146.7,0,0,0-5.8,15.2l-.3.8.3.4c.1.1,1.8,2.3,3,.3a10.4,10.4,0,0,0,1.1-2.9,12.6,12.6,0,0,0-.2-3.6c-.3-1-.7-1.3-1-1.4,1.2-3.2,1.8-4.8,3.1-7.9Zm-2.4,11.1a6.9,6.9,0,0,1,.1,2.2,5.4,5.4,0,0,1-.7,1.7c-.7,1.1-1.6.7-2.2.2s1-3,1.7-4.9C90.3,144.9,90.9,144.8,91.1,145.8Z"/><path class="cls-1" d="M88.7,90.1a12.3,12.3,0,0,0-.8,5.3c.2,1.8.9,2.2,1.4,1s.5-4.2.8-5.3,1.1-.6,1.6.4a13.3,13.3,0,0,1,.6,4.7,13.9,13.9,0,0,1-1.8,6.9c-3.4,6.9-7.5,4.1-7.5,4.1,2.8,6.1,6.5,2.7,8.3-1.5s1.5-6.4,1.5-9.9a14.7,14.7,0,0,0-.8-5.6C91.2,88.6,89,89.4,88.7,90.1Z"/><path class="cls-1" d="M89.8,112.1a4.5,4.5,0,0,0-.3,2.6c.1.9.5.9.8.3a6.1,6.1,0,0,0,.3-2.7C90.4,111.5,90.1,111.4,89.8,112.1Z"/><path class="cls-1" d="M92.4,106.6a5.1,5.1,0,0,0-.3,2.5c.1.8.5,1,.8.3a4.2,4.2,0,0,0,.3-2.5C93.1,106.1,92.8,105.9,92.4,106.6Z"/><path class="cls-1" d="M173.1,140.2a9.1,9.1,0,0,0-2.8,1.9,74.9,74.9,0,0,0-6.5,7.7l-6.1,2.5a70.7,70.7,0,0,1,5.7-7.1c.1.1.7.1,1.5-.3a8.2,8.2,0,0,0,3-2.1c.4-.6-.3-.6-1.5-.1a7.5,7.5,0,0,0-2.8,1.8l-6.5,8-5.7,2.1a67.2,67.2,0,0,1,5.8-7.5c.2.2.7.2,1.4-.1a9.2,9.2,0,0,0,3-2c.4-.7-.3-.8-1.5-.3a6.1,6.1,0,0,0-2.6,1.6l-6.6,8.4a62.8,62.8,0,0,1-6.4,1.8,84.9,84.9,0,0,1,5.5-7.2c.1.3.6.3,1.3.1a6.9,6.9,0,0,0,2.8-1.9c.4-.7-.2-.9-1.3-.6a5.6,5.6,0,0,0-2.7,1.8,84.4,84.4,0,0,0-9.7,13.6,107.7,107.7,0,0,0,19.8-6.8,86.1,86.1,0,0,1,9.8-12.7,2.8,2.8,0,0,0,1.7-.4,9.2,9.2,0,0,0,3.1-2.2C175.2,139.6,174.4,139.6,173.1,140.2Zm-31.2,20.2c.5-.8.8-1.3,1.4-2.1a61.3,61.3,0,0,0,6.3-1.8c-.6.9-.9,1.3-1.4,2.2A59.7,59.7,0,0,1,141.9,160.4Zm6.7-1.9,1.5-2.1,5.7-2.1-1.5,2.2C152,157.4,150.9,157.8,148.6,158.5Zm12.2-4.7-6,2.5,1.5-2.2,6.1-2.5Z"/><path class="cls-1" d="M148,142.6c7.6-3.5,16.8-4.9,24.9-2.7C166.1,135.7,154.3,138.7,148,142.6Z"/><path class="cls-1" d="M195,138.5a11.8,11.8,0,0,0-3.5,2.7,7.6,7.6,0,0,1-.8,1.1,133,133,0,0,0-9.5,14.1h.4l.7-1.1c1.2-1.7,2.1-1.9,5.6-5.7s2.8-5.1,2.8-5.1-1.6,3.5-4.1,5.4a12.4,12.4,0,0,0-2,1.8,102.1,102.1,0,0,1,6.8-9.6c.2.2.9,0,1.9-.6a10.3,10.3,0,0,0,3.6-3C197.4,137.6,196.5,137.7,195,138.5Z"/><path class="cls-1" d="M336.7,144.5h.1a9.8,9.8,0,0,0,2.1-1.9c.8-.9,1.2-1.4.9-1.3a6.3,6.3,0,0,0-2.1,1.7c-.1.1-.2.2-.2.3l-.7.7a.6.6,0,0,0,.1-.4l-.6.7a.4.4,0,0,1-.1.3c-4.1,4.5-6.4,7.2-11.1,13.3.7-2.1,1.1-3.1,1.8-5a145,145,0,0,1,10.1-11l-.5,1.6.7-.6a7.5,7.5,0,0,1,.4-1.6l2-1.9c-.3.4-.4.6-.2.6l1-.7c0,.2-.1.3-.1.5l.5-.5c.1-.2.1-.3.2-.4l.5-.5c.7-.7,1.1-1.2.8-1.1l-1,.5c.1-.1.1-.1.1-.3l-.6.5v.2l-.4.4h0l-2.8,2.5v-.2a3.4,3.4,0,0,0-.6.6v.2a151.4,151.4,0,0,0-11.9,13.2c-.6,2.1-1,3.1-1.7,5.2a197,197,0,0,1,12.8-15.3l-.5,1.5.6-.7C336.5,145.2,336.5,144.9,336.7,144.5Zm.1-.4h.1l-.2.3C336.7,144.2,336.8,144.2,336.8,144.1Zm4.7-4.4h-.1l.6-.5h-.1l.5-.4v-.2l.5-.4h.1l-.5.4v-.2l-.5.5v.2Z"/><path class="cls-1" d="M253.2,189.6c-.3-.8-1.3-1.1-3-.7s-5.5,2.9-6.5,4.8.4,2.8,2.8,2.2a11.7,11.7,0,0,0,2.8-1.3c-4.7,6.3-6.8,9.2-10.3,14.3-.4-.5-1.5-.7-2.9-.4a8.1,8.1,0,0,0-2.7,1.1l-3.6-.4-1,1.4,2.8.3a4.7,4.7,0,0,0-.9,1.2c-.5,1.4,1.1,2.1,3.4,1.6a8.8,8.8,0,0,0,3.9-1.8l3.7.7,1-1.3-3.6-.8c8.9-13.1,18.7-25.4,28.6-37.8a7.1,7.1,0,0,0-.6,2.3c-.3,3.6-5.1,9.1-7.9,11,0,0,5.4-1.9,9.9-10.6,3-5.7,4-7.8,4.9-9.7l2.4-3.4-.9-.2C265.6,173.6,261,179.3,253.2,189.6Z"/><path class="cls-1" d="M253.4,139.4c-2.1.4-4.2,1.4-4.8,2.2-7.6,6.3-14,13.5-20.3,21a1.8,1.8,0,0,0,.1-1c-.5-1.5,2.4-4.7,4.5-6,0,0-4.9,1.9-6.8,6.3s0,3.4-2.4,6.6h.7c4.1-5.3,8.5-10.5,13-15.4.3.3,1.2.2,2.5-.2a13.2,13.2,0,0,0,4.8-3c.7-1-.4-1.3-2.4-.6a10.7,10.7,0,0,0-2.2,1,88.3,88.3,0,0,1,8.5-8,4.6,4.6,0,0,0,2.5-.2,15.2,15.2,0,0,0,4.9-2.2C256.6,139.1,255.4,138.9,253.4,139.4Z"/><path class="cls-1" d="M146.7,175.8a6.6,6.6,0,0,0-2.7,2.8c0,.2-4.2,10.5-4.2,10.5h.3c1.3-3.7,2.1-5.5,3.6-9.1.1.7.7.9,1.7.4a7.1,7.1,0,0,0,2.9-3.5C148.6,175.6,147.9,175.2,146.7,175.8Zm1.2,1.2a5.3,5.3,0,0,1-2.3,2.4c-1,.5-1.7.5-1.5-.3a5.1,5.1,0,0,1,2.3-2.3C147.3,176.3,148.2,176.2,147.9,177Z"/><path class="cls-1" d="M149.4,170.9c-1.9,0-4.1,3.3-4.1,3.3s2.4-2.1,3.5-2.1,1.1,2.2,1.1,2.2S151.4,170.8,149.4,170.9Z"/><path class="cls-1" d="M148.1,173.1c-.2,0-.6.4-.8.9s-.3.9,0,.9.6-.4.9-.9S148.4,173.1,148.1,173.1Z"/><path class="cls-1" d="M276,125.3a11,11,0,0,0-5,3.1c-.7,1.1.3,1.5,2.3.9a13.7,13.7,0,0,0,4.8-2.7c7.6-7.6,16.1-15.1,26-19.4a110.8,110.8,0,0,1,14.1.1c-4.3,1.2-6.7,2.3-11.6,5.4-.2-.4-1.3-.5-2.9-.4s-4.6,1-5.3,1.8.4,1.2,2.6.9a11.8,11.8,0,0,0,5.2-1.6l15.3-6.5a109.6,109.6,0,0,0-16.1-.5c-10.6,4.1-18.8,11.6-27,19.1C278.3,125,277.5,124.9,276,125.3Z"/><path class="cls-1" d="M147.2,194c-.2-.4-.7-.5-1.5-.1a4.9,4.9,0,0,0-2.1,3.2c-.2,1.1.5,1.5,1.6.9a5.9,5.9,0,0,0,2-2.6,137.5,137.5,0,0,1,7.5-19.3l7.8-4.3a142.7,142.7,0,0,0-6.8,15.5c-.2-.4-.8-.4-1.6.1a5.9,5.9,0,0,0-2.4,3.3c-.3,1.1.5,1.5,1.6.7a6.2,6.2,0,0,0,2.3-2.8,171.7,171.7,0,0,1,8.7-19.6c-3.7,2.1-5.5,3.1-9,4.9A175.8,175.8,0,0,0,147.2,194Z"/><path class="cls-1" d="M162.3,189c-.2-.4-.9-.3-1.7.2a6.5,6.5,0,0,0-2.4,3.4c-.2,1.2.6,1.5,1.7.7a7.3,7.3,0,0,0,2.4-3.1l5.4-13.3,7.8-1.7a129.1,129.1,0,0,0-5.2,12.3c-.3-.4-.9-.3-1.7.2a7.2,7.2,0,0,0-2.6,3.6c-.2,1.2.6,1.4,1.8.6a7.3,7.3,0,0,0,2.4-3.2c.1,0,5.8-13.6,5.8-13.6l8-2c-2.4,5-3.5,7.6-5.5,12.6q-.5-.6-1.8.3a6.7,6.7,0,0,0-2.7,3.7c-.2,1.1.6,1.3,1.8.4a7.7,7.7,0,0,0,2.6-3.1l6.1-14,8.3-2c-2.6,5.1-3.9,7.7-6,12.7-.2-.4-.9-.3-1.8.4a7.3,7.3,0,0,0-2.8,3.7c-.3,1.1.6,1.3,1.9.4a8.6,8.6,0,0,0,2.6-3.1l8-17c-8.8,2.2-17.5,4.5-26.3,6.3A150.8,150.8,0,0,0,162.3,189Z"/><path class="cls-1" d="M290.7,135.2a12,12,0,0,0,4.9-2.5,100.6,100.6,0,0,1,12.3-9l7.1,1.6a94.2,94.2,0,0,0-11.1,8.1c0-.4-.5-.6-1.5-.4a9,9,0,0,0-4.6,2.5c-1,1-.5,1.6,1.1,1.2a11.5,11.5,0,0,0,4.5-2.4l12-8.9a49.4,49.4,0,0,1,5.8,1.9,81.1,81.1,0,0,0-10.8,8.2c.1-.5-.2-.7-1.2-.5a9.2,9.2,0,0,0-4.2,2.3c-1,1.1-.6,1.7.7,1.4a10.4,10.4,0,0,0,4.2-2.4,100,100,0,0,1,12.7-9.7l1.2-.7a71,71,0,0,0-13.9-3.7l-1.2.7a92.4,92.4,0,0,0-12.7,8.9c0-.4-.7-.6-1.9-.3a9.9,9.9,0,0,0-5,2.5C288.2,135,288.9,135.6,290.7,135.2Z"/><path class="cls-1" d="M285,190.9a4.2,4.2,0,0,0-2,1.7l-7.9,12.3v.2l.6-.7c.6-.9.5-.2,2.4-2.2a12,12,0,0,0,2.9-5.2c-.6,1.4-2.1,4-3.1,4.4a2.3,2.3,0,0,0-1,.7c1.7-2.7,2.8-4.4,5.3-8-.2.6-.1,1,.3,1s1.6-1,2.3-2.1S285.6,190.9,285,190.9Z"/><path class="cls-1" d="M285.8,208.7c-1.9,2.9-3.2,5.1-4.4,7.3Z"/><path class="cls-1" d="M279.3,214c2.2-3.9,3.7-6.4,7.4-12.1-.3.7-.3,1.2,0,1.2s1.3-.9,2-2.2,1.1-2.4.6-2.4-1.2.9-1.9,2.1l-8.1,13.1a38,38,0,0,0-.6-5c1.7-3,2.8-4.8,5.4-8.8-.2.7-.2,1.1.1,1.2s1.4-.9,2.1-2.1.9-2.2.4-2.2-1.3.8-2,1.9l-6.5,10.4-.5.8c1.3,6.1,1,9.7.6,17.2a125.1,125.1,0,0,1,6-11.1c-.2.8-.3,1.3-.1,1.4s1.1-.8,1.8-2.2,1-2.5.7-2.5-1,.8-1.7,1.9l-5.9,10.6c.2-2.3.2-3.4.3-5.5l2-3.7-2,3.4C279.4,217.1,279.4,216.1,279.3,214Z"/><path class="cls-1" d="M291,201.1c-.4,0-1.4,1.3-2.2,2.5l-3,5.1,2.5-4c-.3.8-.4,1.3-.1,1.3s1.3-1.1,2.1-2.5S291.4,201,291,201.1Z"/><path class="cls-1" d="M287.7,187.5c4.8-3.3,1.6,5.7,1.6,5.7C295.4,179.5,287.7,187.5,287.7,187.5Z"/><path class="cls-1" d="M97.2,185.2a6.7,6.7,0,0,0-1.2-3.1c-.9-.9-1.9-.2-2.3,1.8s.2,4.3,1.1,5.2,1.6.3,2-1a189.6,189.6,0,0,1,13.1-31.6,44.2,44.2,0,0,0,6.3,7.1c-2.2,4.2-3.3,6.3-5.4,10.8a3.2,3.2,0,0,0-1.3-2.4c-1.1-.7-2.3,0-2.8,1.7s.1,3.7,1.2,4.3,1.9,0,2.5-1.2l7.7-15.4a44.9,44.9,0,0,1-7.2-8.2A173.2,173.2,0,0,0,97.2,185.2Z"/><path class="cls-1" d="M115,139.5c.8-2.5-1.3-1.8-1.3-1.8a4.9,4.9,0,0,1,.8,1c.1.3-2.7,2.1-3.3,2.5l-.3-1-.3.5a30.1,30.1,0,0,0,1.1,3.2,1.3,1.3,0,0,1,.3-.5,2.4,2.4,0,0,1-.3-.9l.9-.8c1.8,2.9,3.3,1.6,3.4-.4A1.8,1.8,0,0,0,115,139.5Zm0,1.8c-.1,1-1.4.6-2.2.2l1.5-1.4C114.9,140.1,115.2,140,115,141.3Z"/><path class="cls-1" d="M121.4,166.3a1.8,1.8,0,0,0-1.9,1.3l-1.8,3.8c-.1.1-.1.3-.2.4a107.4,107.4,0,0,0-5.2,14.2l.3.3a105.7,105.7,0,0,1,4.8-13.4,1.3,1.3,0,0,0,1,1.2c.7.1,1.6-.7,1.9-1.7a1.4,1.4,0,0,0-.9-2l-1,.2.9-1.9a1.3,1.3,0,0,0,1,1.1,2.1,2.1,0,0,0,2-1.6A1.3,1.3,0,0,0,121.4,166.3Z"/><path class="cls-1" d="M188.6,195.7a8.9,8.9,0,0,0-3.1,3.3,115.9,115.9,0,0,0-8.7,23h.5a83.9,83.9,0,0,1,5.4-15.7c.2.4.9.3,1.8-.3a7.7,7.7,0,0,0,3.1-3.7c.3-1.2-.5-1.4-1.9-.5a8,8,0,0,0-1.7,1.5l1.3-2.9c.2.4.9.4,1.9-.3a9,9,0,0,0,3.3-3.8C190.9,195,190,194.8,188.6,195.7Z"/><path class="cls-1" d="M120.3,220.4a8.5,8.5,0,0,0-4.9,6.1c-.4,2.6,1,4.2,3.2,3.4a8.8,8.8,0,0,0,4.2-4.3c.1,0,9.7-25.3,9.7-25.3a7.1,7.1,0,0,0,.2,2.9c1.1,4.1-2.1,10.9-4.4,13.4,0,0,5.2-3,6.7-13.1,1.1-7.1.4-8.3.7-10.7s.7-2.5,1.1-4.1a263.5,263.5,0,0,0-13.4,32.9A2.3,2.3,0,0,0,120.3,220.4Z"/><path class="cls-1" d="M173.8,148c-.1-.2-.8-.1-1.7.4a8.5,8.5,0,0,0-3.1,2.7c-.5.9.3,1,1.6.2a7.5,7.5,0,0,0,2.6-2l.6-.8c2.4-3.3,3.7-4.8,6.1-7.6a.6.6,0,0,0,0,.6c.6.6-1.5,3-3,4.1,0,0,3.9-2.4,4.4-4.6a10.2,10.2,0,0,1,1.6-3.4h-.5A86.6,86.6,0,0,0,173.8,148Z"/><path class="cls-1" d="M278.2,176.2c.3-.7-.1-1.2-1.1-.9a7.1,7.1,0,0,0-3.4,2.6c-.6,1.1-.2,1.8.9,1.5a4.4,4.4,0,0,0,1.9-1l-4,5.3c0-.5-.4-.8-1.2-.6a5.3,5.3,0,0,0-3,2.3c-.5,1,0,1.6,1.1,1.4a4.9,4.9,0,0,0,2.5-1.7c5-6.9,10.3-13.6,15.8-20.1a18.9,18.9,0,0,1,3.2,3.9c-4.1,5.1-6.1,7.6-9.6,12.3.1-.6-.2-.9-.8-.8a6.4,6.4,0,0,0-3,2.5c-.6,1.1-.4,1.8.6,1.6a5,5,0,0,0,2.8-2.3c4.4-5.8,6.9-9.1,12.3-15.6a15.8,15.8,0,0,0-3.5-4.3C284.7,168,282.4,170.9,278.2,176.2Z"/><path class="cls-1" d="M304.7,145.7a9.6,9.6,0,0,0,3.9-2.6,108.8,108.8,0,0,1,18.8-15.4,12.3,12.3,0,0,1,2.4,2.8,85.2,85.2,0,0,0-11.6,9.5c.2-.5,0-.8-.7-.6a8.7,8.7,0,0,0-3.7,2.4c-1,1-.9,1.8.1,1.5a9.4,9.4,0,0,0,3.6-2.4c6-5.6,9-8.2,14.6-11.8a12.1,12.1,0,0,0-2.7-2.9,115,115,0,0,0-20.2,15.9c.2-.5-.2-.7-1-.5a9.6,9.6,0,0,0-3.9,2.6C303.3,145.3,303.5,146,304.7,145.7Z"/><path class="cls-1" d="M216.7,208.4a5.3,5.3,0,0,0-2.4,2,82.4,82.4,0,0,0-5.2,8.7c-2.1.5-3.1.9-5.2,1.5a131.8,131.8,0,0,1,6.9-12.8c.1.3.6.3,1.3,0a6.1,6.1,0,0,0,2.6-2.4c.4-.8-.2-1-1.3-.5a7.1,7.1,0,0,0-2.3,1.9,93.2,93.2,0,0,0-7.5,13.9l-5.3,1.9c2.2-6.2,5.4-11.9,8.7-17.7.2.3.6.3,1.3-.1a7.3,7.3,0,0,0,2.7-2.5c.4-.8-.2-1.1-1.3-.5a8.3,8.3,0,0,0-2.7,2.5c-2.8,5.7-6.8,12-9.1,18.4l-4.5,1.9a43.5,43.5,0,0,1,2.2-6.3c.2.2.6.1,1.2-.2a5.3,5.3,0,0,0,2-2.3c.2-.8-.4-.9-1.3-.4a4.8,4.8,0,0,0-1.9,2.2,37.4,37.4,0,0,0-2.8,8.4,131,131,0,0,1,15.9-5.7,95.8,95.8,0,0,1,5.4-9.2c.2.3.6.3,1.3,0A5.1,5.1,0,0,0,218,209C218.4,208.2,217.8,207.9,216.7,208.4Z"/><path class="cls-1" d="M217.1,130.2c-.2-.2-1,0-2.1.6a9.2,9.2,0,0,0-3.7,3.1c-.5.9.4.9,2,0a13.8,13.8,0,0,0,3.6-2.9,78.9,78.9,0,0,1,9.2-10.2l9.9-3.4a100.9,100.9,0,0,0-13.5,14.9c-.2-.3-1-.1-2.1.5a10.7,10.7,0,0,0-3.8,3.4c-.5.9.4,1,2,.1a12.3,12.3,0,0,0,3.9-3.4,112.1,112.1,0,0,1,14.2-15.8c4.2-1.4,6.4-2,10.9-3.3-7.3,5.9-13,13-18.7,20.3-.3-.3-1.1-.1-2.2.5a10.9,10.9,0,0,0-4,3.5c-.5,1.1.4,1.2,2.1.3a12.4,12.4,0,0,0,3.6-3.1c5.8-7.8,12.2-15.6,19.8-21.7l10-2.6a49.6,49.6,0,0,0-7.4,6.2c-.3-.2-1.2,0-2.4.4s-3.8,2-4.3,2.8.5.8,2.3,0a15.3,15.3,0,0,0,4.1-2.4c4.2-4.1,6.3-5.9,10.1-8.2a265.3,265.3,0,0,0-33.7,9.9A78.2,78.2,0,0,0,217.1,130.2Z"/><path class="cls-1" d="M257.5,173c-2.9,1.8-3.2,3.8-3.2,4.9l-.9.2c-3.6,1.1-3.1,5.2-3.1,5.2a20.4,20.4,0,0,0,1.7-2.8c.7-1.5,3.7-.9,3.7-.9a3.4,3.4,0,0,1-.3-1.5c.2-2.4,2-3.5,3.7-4.6s2.1-3.7,2.5-5A10,10,0,0,1,257.5,173Z"/><path class="cls-1" d="M127.8,183.3c-1.4,1.3-1.4,3.4-1.3,4.6H126c-1.9.5-1.2,5.4-1.2,5.4s.4-1.4.7-3,2-.4,2-.4a7.5,7.5,0,0,1-.3-1.7,4.3,4.3,0,0,1,1.6-4.2c.6-.7.7-3.3.8-4.6A6.1,6.1,0,0,1,127.8,183.3Z"/><path class="cls-1" d="M338,139.5h.2a9.6,9.6,0,0,0,2.2-1.6c.8-.8,1.2-1.3.8-1.2a5.3,5.3,0,0,0-2.2,1.5h0l-.9.8h0l-.6.5v.2c-3,2.7-4.5,4.3-7.8,7.8a17.7,17.7,0,0,0,.1-2.3c2.8-2.9,4.2-4.2,6.8-6.5-.5.5-.6.9-.2.8l1.2-.8a.9.9,0,0,1-.1.5l.7-.5V138l.6-.4c.8-.8,1.2-1.4.7-1.3l-1.2.6v-.3l-.6.6v.2a86.3,86.3,0,0,0-7.9,7.4,8,8,0,0,0-.3-2.7,93.3,93.3,0,0,1,8-7.1,7.7,7.7,0,0,1,.2,1.5l.6-.5v-1.2h.2a6.9,6.9,0,0,0,2.4-1.4c.9-.7,1.2-1.1.7-1.1a6,6,0,0,0-2.5,1.3h0a3.1,3.1,0,0,0-.9.7v-.2l-.6.5v.2a78.3,78.3,0,0,0-8,7,12.9,12.9,0,0,0-.6-2.1A76.9,76.9,0,0,1,337,133a8.3,8.3,0,0,1,.4,1.5,1.5,1.5,0,0,1,.7-.5,4.4,4.4,0,0,0-.5-1.5l2.2-1.5c-.2.4-.2.6.2.6a3.1,3.1,0,0,0,1.3-.5.9.9,0,0,1,.1.5l.7-.4c-.1-.1-.1-.2-.1-.4l.5-.3c.8-.5,1-.9.5-.9a2.4,2.4,0,0,0-1.3.3.3.3,0,0,1-.1-.2l-.7.3v.2h-.1l-.3.2c-1.1.7-1.8,1.1-3,2v-.2l-.6.5v.2a73.2,73.2,0,0,0-8.1,6.7,11.8,11.8,0,0,0-1.1-1.9,63.2,63.2,0,0,1,8.3-6.5,12.7,12.7,0,0,1,.7,1.2l.7-.5-.5-.9h.3a7,7,0,0,0,2.7-1.2c.9-.6,1.1-1,.4-1a5.6,5.6,0,0,0-2.8,1.1l-.9.6-.3-.4-.7.5.3.3c-5.2,3.5-8,6-13.7,11.5,2.6,3.9,2.7,6.1,2.3,10.9a148.9,148.9,0,0,1,12.9-13.7,11,11,0,0,1-.3,1.6l.6-.6A7,7,0,0,0,338,139.5Zm.4-5.2c-.1.1-.1.3-.2.4v-.2Zm-1.5-3.7a.4.4,0,0,0-.1.3c-.1-.1-.1-.1-.1-.2Zm-11.3,12a6.1,6.1,0,0,0-1.1-2.1l1-.8a9.5,9.5,0,0,1,1.1,2Zm.8,2.4a10.1,10.1,0,0,0-.7-2.3l1-.9a18,18,0,0,1,.6,2.2Zm.3,3.1a10.2,10.2,0,0,0-.3-3l1-.9a25.8,25.8,0,0,1,.3,2.9Zm0,2.6c0-1,.1-1.5.1-2.5l.9-1a20.9,20.9,0,0,1-.1,2.5Zm11.4-11.6.2-.3-.3.5Zm-13-21.4c1.9.3,24.6,1.5,24.6,8.7,0,2.4-5.7,6.4-7.4,8.1,8.6-7.3,11-6,4.1-12.2C341.8,118.3,330.9,117.9,325.1,117.7Z"/><path class="cls-1" d="M285.8,268.7c13.8-34.2,32.2-66.6,49.5-99.1l-.2-.2c-17.2,32.5-35.6,64.9-49.5,98.9Z"/><path class="cls-1" d="M379.8,295.1c-5.4-47,8.8-92.7,33.4-132.4H413c-24.6,39.7-38.9,85.4-33.5,132.4Z"/><path class="cls-1" d="M400.3,176.2a.1.1,0,0,1-.1.1c-22.2,37.1-39.7,79.2-40.6,123h.2C360.6,255.4,378.1,213.2,400.3,176.2Z"/><path class="cls-1" d="M391.7,187.8h-.2c-20.2,34.4-40.8,73.3-47.1,113.1h.2C350.8,261.1,371.4,222.2,391.7,187.8Z"/><path class="cls-1" d="M364.6,187.4h-.4c-14.5,36.3-32.5,71.8-43.8,109.3h.3C332,259.2,350.1,223.7,364.6,187.4Z"/><path class="cls-1" d="M313.9,203.9c.8-.4,2.2-2.3,3.1-4.2,6.1-11.3,12.2-22.7,18.4-33.9-1.2-6.3-.7-9.1.8-14.3-3.9,5.3-6.2,8.7-11,16.1.3-.6.4-1,.1-.8a13.2,13.2,0,0,0-2.6,3.3c-1,1.6-1.4,2.6-.8,2.3a17.6,17.6,0,0,0,2.6-3.4c4-6.3,6-9.2,9.4-14.1a29.9,29.9,0,0,0-.9,4.5c-3.4,5.3-5.3,8.4-9.3,14.9.3-.8.3-1.2-.1-.9a14.6,14.6,0,0,0-2.7,3.6c-.9,1.6-1.2,2.7-.6,2.3a9.3,9.3,0,0,0,1.9-2.2l.8-1.4c4.3-7,6.3-10.4,10-16a18.8,18.8,0,0,0-.3,4.8c-4.3,7.2-8.4,14.4-12.6,21.6.3-.9.3-1.3-.2-1A14.7,14.7,0,0,0,317,189c-.9,1.8-1.1,3-.4,2.6a13.7,13.7,0,0,0,2.7-3.6c4.4-7.8,8.8-15.5,13.4-23.2a26.7,26.7,0,0,0,.4,4.8c-5.2,9.5-10.4,19-15.5,28.5.2-.9.1-1.3-.4-1.1s-2.1,2.3-3,4.2S313.1,204.3,313.9,203.9Z"/><path class="cls-1" d="M366.5,196.6a26,26,0,0,0,1.6-3.4c.3-1.2-.1-1.5-.3-1.6s-.9.3-1.4.8c1.6-3.7,2.4-5.5,3.8-9h-.4c-2.6,6.4-4.2,9.9-7.4,17.5l-.5,1,.4-.3A16.2,16.2,0,0,0,366.5,196.6Zm-.8-2.5c.4-.5,1.2-1.5,1.4-1.3s.4.2.2,1a20,20,0,0,1-1,2.1,15.1,15.1,0,0,1-3.1,3.9Z"/><path class="cls-1" d="M279.3,238.7h.1s.5.4,1.5-1.3a15,15,0,0,0,1.1-2.2,4.8,4.8,0,0,0,.5-1.8c.1-.4-.1-.2-.3-.1,1.3-2.5,2-3.9,3.6-6.7v-.4c-2.9,5.4-4.2,7.8-6.3,11.9Zm2.3-4.2c.2-.3.5-.7.5-.3a6.2,6.2,0,0,1-.3,1.1,7.6,7.6,0,0,1-.7,1.3c-.6,1-1,1.3-1.3,1.3S280.8,235.9,281.6,234.5Z"/><path class="cls-1" d="M356.3,179a1,1,0,0,0,1.6.9c1.4-.5,3-2.6,3.5-4.5s-.2-3-1.5-2.6a7,7,0,0,0-3.2,3.7c-3.3,7.8-5.2,12.2-9.3,21.4l-6.9,1.8c3.9-8.4,5.7-12.4,9.1-19.9,0,.9.5,1.3,1.3,1s2.9-2.7,3.6-4.6,0-3.1-1.2-2.6-2.4,2.1-3.2,3.9c-3.3,7.5-6.8,14.9-10.2,22.4l-6.2,1.7c4.2-8.8,6.3-13.1,10-21,0,.9.4,1.4,1.2,1s2.8-2.6,3.5-4.6.3-3.2-.8-2.7-2.2,2-3.1,3.7c-3.7,8-7.6,15.9-11.4,23.8l-6.5,1.8,10.3-20.5c-.1,1,.2,1.5.9,1.1s2.7-2.7,3.5-4.7.6-3.3-.4-2.8-2.6,2.6-3.5,4.6c-6.3,12.6-12.7,25.2-19,37.9l22.6-5.5C346.2,202.1,351.3,190.6,356.3,179Zm-35.1,35.4c1.1-2.3,1.7-3.5,2.9-5.8l6.6-1.8c-1.1,2.3-1.7,3.4-2.8,5.8Zm7.2-2c1.2-2.3,1.7-3.5,2.8-5.8l6.4-1.7-2.7,5.8Zm9.8-7.7,7-1.8-2.7,5.8-7.1,1.9Z"/><path class="cls-1" d="M351.3,173.4c-2-10.9-6.6-23.4-15.2-8.2C344.4,152.2,348.4,164.6,351.3,173.4Z"/><path class="cls-1" d="M352.8,230.9c1.5-3.1,2-2.9,5.7-9.3s4.4-10.8,4.4-10.8a33.2,33.2,0,0,1-5.1,10.4,24,24,0,0,0-1.9,2.9c2.9-6.5,5.9-12.9,8.8-19.3,0,.8.4,1,1.2.4a13.2,13.2,0,0,0,3.3-4.9c.7-1.8.4-2.6-.8-1.8a11.1,11.1,0,0,0-3.1,4.3l-1,2.2c-4.3,9.3-8.5,18.6-12.7,27.9h.3A17.6,17.6,0,0,1,352.8,230.9Z"/><path class="cls-1" d="M496.9,132.7l1.3-.2a16.3,16.3,0,0,0,7.4-4.1c1.6-1.8.8-2.8-1.7-2.3a14.4,14.4,0,0,0-7.3,4.2c-.2.1-.3.3-.4.4a9.3,9.3,0,0,1-1.4,1.4l-1.4-.3-1.2,1.3,1.3.3a181.3,181.3,0,0,0-19,23l-7.6-4.2a157.3,157.3,0,0,1,16.3-21l5.9,1.2,1.3-1.3-6-1.2,4.2-4.4q-.2,1.2,2.1.6a16,16,0,0,0,4.3-2.2l2.3.5,1.3-1.2-2-.4,1.1-1.1c1.6-1.7,1-2.6-1.4-1.9a14.5,14.5,0,0,0-4.2,2l-1.1-.2-1.3,1.3h.8l-.9.9h0c-2.4,2.3-3.5,3.5-5.7,5.9l-.8-.2-1.2,1.3.8.2A228.7,228.7,0,0,0,463.9,156c3.3,1.3,5.1,2.1,8.9,3.8a163.4,163.4,0,0,1,21.3-26.3l6.4,1.8,1.3-1.3Zm-1.5-.4.4-.4a.7.7,0,0,0,.3.6Zm13.4-9.9.7.2,1.6-1.3.8.3,1.5-1.2-.8-.2,1.6-1.2-.7-.2-1.6,1.2-.9-.2-1.5,1.1.9.2Z"/><path class="cls-1" d="M367.7,304.6a9,9,0,0,0-.2,1.8h-1l.3,1.8h.8a4,4,0,0,0,.3,1.5c.5,1.8,1.2,2.4,1.5,1.4a10.1,10.1,0,0,0,.1-3.1l1.2-.2c-.2-.7-.2-1.1-.4-1.9l-1.1.2c-2.5-14.6-1.5-29.1.4-43.6a13.3,13.3,0,0,0,0,2,71.5,71.5,0,0,1-1.1,11.7,85.9,85.9,0,0,0,1.6-12.1c.4-5.6.7-7.6.9-9.3s.4-2.1.7-3.5l-.2.2a187.2,187.2,0,0,0-4,29.8c-.2-.6-.4-.6-.8.2a18.8,18.8,0,0,0-.8,6.1c.1,2,.6,2.6,1,1.4a8.8,8.8,0,0,0,.4-2,96.4,96.4,0,0,0,1.3,17.3C368.3,303.9,367.9,303.9,367.7,304.6Z"/><path class="cls-1" d="M308.3,187.6a9.2,9.2,0,0,0,1.6-1.9,5.7,5.7,0,0,0-.1,1.3l1-1.5a5.7,5.7,0,0,1,.1-1.3c6.5-9.9,13-19.7,20.1-29.2l-.9,1.4a69.7,69.7,0,0,1-4.9,7.1,55.3,55.3,0,0,0,4.9-6.6c2.3-3.5,3.1-4.6,3.8-5.6l1.3-1.7v-.2c-4.2,5.3-8.2,10.8-12.1,16.3.4-.6.5-1,.2-.8a14.7,14.7,0,0,0-2.6,3.2c-1,1.5-1.5,2.5-1,2.2l.8-.8-8.6,12.9c.3-.6.3-1,0-.8a2.9,2.9,0,0,0-.8.8c0-.4.1-.6.1-1l-1,1.5c0,.3-.1.5-.1.8l-.9,1.3C308.2,186.7,307.8,187.8,308.3,187.6Z"/><path class="cls-1" d="M383.8,203.8l1.2-2h0c2.5-4.7,5.2-9.3,7.9-13.9C389.3,193.7,387.4,197,383.8,203.8Z"/><path class="cls-1" d="M381,209.1l-2.1,4.3,2-4Z"/><path class="cls-1" d="M378.9,213.4c-2.3,4.4-4.4,8.9-6.5,13.3l.7-1.8c1.1-2.7,3.9-8.5,5.2-10.9a104,104,0,0,0-5.6,11.4c-3.5,7.8-2.5,6.1-4.9,11.7h.1C371.4,229,375,221.2,378.9,213.4Z"/><path class="cls-1" d="M393.7,186.7l3.3-5.3c1-1.6,1.2-1.9.3-.7l-3.3,5.2-1.1,1.9.3-.5Z"/><path class="cls-1" d="M384.6,202.7c1-1.8,1.2-2.3.4-1l-4.1,7.7c.1,0,.2-.3.5-.7S383.6,204.6,384.6,202.7Z"/><path class="cls-1" d="M310.7,255.6c-.1,1.5.5,2.3,1.6,2s3.3-2.7,4-5.1.2-4-1.3-3.6-2.7,2.1-3.5,4.1l-7.4,17.2.3.3C306.7,264.9,308,261.9,310.7,255.6Zm.7-1.5a5.7,5.7,0,0,1,3-3.4c1.1-.3,2.1.1,1.6,1.7a6,6,0,0,1-3.2,3.4C311.7,256.1,310.9,255.7,311.4,254.1Z"/><path class="cls-1" d="M318.4,242.1c1.1.7.5,5.9.5,5.9s2.6-6.8.7-8.2-5.3,4.5-5.3,4.5S317.4,241.3,318.4,242.1Z"/><path class="cls-1" d="M317.2,246c.4-.9.5-1.8.2-2s-.7.5-1.1,1.4-.6,1.8-.3,1.9S316.7,246.9,317.2,246Z"/><path class="cls-1" d="M400.2,176.5h0l.2-.3Z"/><path class="cls-1" d="M400.4,176.2c4-6.1,8.1-12.1,12.7-17.8l-5.2,7.1-1.4,2,3.6-4.9c2.4-3.2,3.7-4.8,6.2-8a173.8,173.8,0,0,0-16.1,21.9Z"/><path class="cls-1" d="M400.2,176.5Z"/><path class="cls-1" d="M406.5,167.5l-.8,1.1Z"/><path class="cls-1" d="M399.9,177l.5-.8-.2.3-1,1.6-1.7,2.7.6-.9Z"/><path class="cls-1" d="M398.1,179.9l-1.7,2.7c-.1.2-.2.3-.2.5l-.2.2c-.7,1.2-.6,1.1.2-.2a18.6,18.6,0,0,1,1.3-2.3c-5.1,8.2-9.8,16.7-14.1,25.4,6.7-13,13.8-25.7,22.3-37.6C403.1,172.3,400.5,176,398.1,179.9Z"/><path class="cls-1" d="M378.5,216.1l2.7-5.6,2.2-4.3-1.3,2.5c.4-.9.4-.9-.2.2s-2.2,4.1-3.1,6.1S377.7,217.6,378.5,216.1Z"/><path class="cls-1" d="M396.4,182.6l1.7-2.7-.6.9a18.6,18.6,0,0,0-1.3,2.3C396.2,182.9,396.3,182.8,396.4,182.6Z"/><path class="cls-1" d="M319.2,261a2.5,2.5,0,0,0,2.1-1.7c2.7-7.7,5.8-15.3,8.9-22.9l7.9-1.8c-2.7,6.5-5.2,13-7.6,19.6a1.5,1.5,0,0,0-1.8-.9,3.6,3.6,0,0,0-2.6,2.8c-.3,1.4.5,2.3,1.7,2.1a3.4,3.4,0,0,0,2.3-2.5c3.1-8.3,6.4-16.6,9.8-24.8-2.5,1.6-5.5,1.5-8.8,2.3-3.4,8.1-6.7,16.2-9.7,24.4a1.3,1.3,0,0,0-1.5-.9,2.9,2.9,0,0,0-2.2,2.4C317.5,260.3,318.1,261.1,319.2,261Z"/><path class="cls-1" d="M330.3,278.6a8.2,8.2,0,0,0,2.2-3.6c2.4-6.7,5-13.3,7.7-19.9l4.3,1c-3.2,7.8-4.7,11.5-7.1,18.2,0-.7-.4-.8-.9-.3a9.9,9.9,0,0,0-2.4,4.3c-.4,1.5-.1,2.2.8,1.5a11.3,11.3,0,0,0,2.1-3.7c2.4-6.7,5-13.3,7.7-19.9l3.8.5c-3.2,7.8-4.7,11.5-7.1,18.3,0-.6-.2-.8-.8-.2a11.3,11.3,0,0,0-2.2,4.4c-.5,1.6-.1,2.2.6,1.4a9.2,9.2,0,0,0,2-3.6c2.3-6.8,4.9-13.6,7.7-20.3a18.2,18.2,0,0,0,3.3,0c-3.1,7.9-4.6,11.7-6.9,18.7.1-.7-.2-.8-.7-.2a12.6,12.6,0,0,0-2.2,4.5c-.4,1.7-.1,2.3.6,1.4a9.2,9.2,0,0,0,1.8-3.6c2.8-8.5,5.9-16.8,9.3-25-4,.3-6.3.1-12.3-1.6-3,7.4-6,14.8-8.8,22.3,0-.7-.3-.9-.9-.4a8.4,8.4,0,0,0-2.5,4.1C329,278.5,329.4,279.2,330.3,278.6Z"/><path class="cls-1" d="M392.7,192c-.8,1.4-2.3,4.3-3.2,6.4s-1,2.6-.2,1.1,2.3-4.4,3.3-6.5,2.5-5.2,3.8-7.7l-3.2,6.2C393.5,190.8,393.3,190.9,392.7,192Z"/><path class="cls-1" d="M397.7,182.8c-.4.8-.9,1.6-1.3,2.5C396.8,184.4,397.3,183.6,397.7,182.8Z"/><path class="cls-1" d="M399.6,177.3l-4,7.1,4.5-7.8Z"/><path class="cls-1" d="M390.9,194.2c.2-.6.1-.5-.5.5l-3.2,6.4c-.9,2.1-1,2.6-.2,1.1s2.2-4.5,3.2-6.5a220.2,220.2,0,0,1,11.5-21.4c.9-1.2,1.4-1.7,2.4-2.9-2.3,3.8-4.4,7.5-6.4,11.4,2.5-4.6,5-9.1,7.8-13.5l1.3-2.2a36.9,36.9,0,0,0-4.8,6.4l-1.2,2-.7,1.1a21.2,21.2,0,0,1,1.5-2.1A221.1,221.1,0,0,0,390.9,194.2Z"/><path class="cls-1" d="M385,204.8c.8-1.5,2.2-4.4,3.2-6.4,2.4-4.7,4.8-9.4,7.4-14-2.3,4.2-4.5,8.3-6.7,12.6.2-.6.1-.5-.4.5s-2.2,4.3-3.2,6.3S384.3,206.3,385,204.8Z"/><path class="cls-1" d="M391.8,312.1a27.6,27.6,0,0,1-.8-2.7c-.9-3.2-.4-2.5-1.3-9.8s-2.7-11.9-2.7-11.9c.8,2.4,2.1,8.6,1.8,11.9a18.3,18.3,0,0,0,.2,3.3,127.2,127.2,0,0,1-3.4-20.2c.3.8.8.9,1.2-.1a16.6,16.6,0,0,0,.4-6.5c-.2-2.3-.9-3-1.5-1.6a14.9,14.9,0,0,0-.6,5.5,121,121,0,0,0,6.3,32.1Z"/><path class="cls-1" d="M260.9,292.1c.1-.7-.2-1-.9-.7a7,7,0,0,0-2.9,3c-.7,1.3-.5,2.1.5,1.8a6,6,0,0,0,2.8-2.7,83.8,83.8,0,0,0,6.9-14.5l3.7,2.4a90.1,90.1,0,0,1-10.3,19.7c.1-.6-.1-.9-.8-.6a8.5,8.5,0,0,0-3.2,2.9c-.8,1.3-.6,2.1.3,1.7a8.1,8.1,0,0,0,3.3-2.9,104.5,104.5,0,0,0,10.9-20.7l3.6,2.2a87.1,87.1,0,0,1-8.5,17c.1-.6-.1-.8-.7-.6a9.3,9.3,0,0,0-3,3.2c-.8,1.3-.7,2,.2,1.6a8.5,8.5,0,0,0,2.9-2.8,84.5,84.5,0,0,0,9.3-18.2l3.5,2a87.7,87.7,0,0,1-6.3,13.1c.1-.6-.1-.8-.7-.5a9,9,0,0,0-2.8,3.2c-.7,1.3-.6,2,.2,1.6a8.9,8.9,0,0,0,2.7-3,81.3,81.3,0,0,0,7.6-15.7l.5-1.6c-3.9-2.3-7.7-4.7-11.6-7.2A81.7,81.7,0,0,1,260.9,292.1Z"/><path class="cls-1" d="M294.3,298.6a8.2,8.2,0,0,0-3.2,3c-.8,1.3-.7,2,.3,1.7s2.4-1.8,3.2-3c4.1-6.2,8.3-13.3,11-20.6l3.6,2.2a93.1,93.1,0,0,1-8.5,17c.1-.6-.2-.9-.8-.6a8.9,8.9,0,0,0-3,3.1c-.8,1.3-.7,2,.3,1.6a8.3,8.3,0,0,0,2.8-2.8,89.7,89.7,0,0,0,9.4-18.2l3.4,2.1a82.9,82.9,0,0,1-6.3,13.1c.2-.7-.1-.9-.7-.6a10.5,10.5,0,0,0-2.8,3.3c-.7,1.3-.6,2,.3,1.5a9.6,9.6,0,0,0,2.7-2.9,84.6,84.6,0,0,0,7.5-15.8,9.4,9.4,0,0,0,.6-1.5c-3.9-2.4-3.9-2.1-7.7-4.6l-1.1,2.9a86.3,86.3,0,0,1-10.2,19.8C295.2,298.7,294.9,298.4,294.3,298.6Z"/><path class="cls-1" d="M393,265.2c-4.9-19-7,1.4-7,1.4C388.7,254.7,393,265.2,393,265.2Z"/><path class="cls-1" d="M279.8,244c-.3-.2-.9.6-1.3,1.7a3.9,3.9,0,0,0-.4,2.6c.2.2.7-.2,1.1-1,4.9-10.6,10.6-20.8,16.3-31l2.1,1.6c-3.1,5.5-4.5,8.2-7.2,13.2.2-.8.2-1.4-.1-1.3s-1.6,1.5-2.3,3.1-1,2.8-.5,2.8,1.1-.9,1.9-2.3c3.3-6.4,6.8-12.7,10.3-18.9l-2.3-1.8c-6.1,10.8-12.3,21.6-17.6,32.8C280,244.8,280,244.2,279.8,244Z"/><path class="cls-1" d="M300.5,202.4l1.7-2.8c1.3,0,4-4.1,5.2-6.8s-.1-.8-.5-.3c2.7-4.8-.9.3-.9.3s.8-.7.8-.5l-6.4,9.4v-.5a7.5,7.5,0,0,1-.7,1.2,8.1,8.1,0,0,1,.1,1.6l.7-1.2Zm5.2-8c.8-1.1,1.4-1.9.4,0a20.4,20.4,0,0,1-3.4,4.5Z"/><path class="cls-1" d="M295.6,228.6l-3.8,7.2-.3.7c-3.5,6.9-7,13.8-10.1,21a.4.4,0,0,0,.1.3c2.9-6.6,6.1-13,9.3-19.5-.2.9-.1,1.5.3,1.4s1.8-1.6,2.6-3.5.9-3,.2-2.9a2.6,2.6,0,0,0-1,.9l2-3.7c-.3.9-.2,1.5.2,1.3s1.9-1.8,2.8-3.7.9-3.1.3-2.9S296.4,226.9,295.6,228.6Z"/><path class="cls-1" d="M342.7,293c0,.6.3.8.7.1a13.4,13.4,0,0,0,1.8-4.8c.4-1.7.3-2.3-.4-1.3a7.2,7.2,0,0,0-1,1.8c.5-1.6.7-2.5,1.3-4.1-.1.7.1.8.6.1a26.2,26.2,0,0,0,2.2-5.2c.5-1.8.3-2.4-.4-1.4a20.6,20.6,0,0,0-1.9,4.4c-3.2,9.6-6.1,19.8-6.1,30.1h.2C339.6,306.3,340.3,302.2,342.7,293Z"/><path class="cls-1" d="M295.5,265.3c-.9.1-2.1,1.6-2.6,3.2s-.1,2.8.9,2.7,1.5-.8,2.1-1.9l7.3-16.8c-.1.8-.3,1.6-.4,2.4-.2,3.6-2.4,8.1-3.7,9.4s2.4-.8,4.6-8.6c1.5-5.5,1.5-6.8,2.1-8.8s.7-2,1.2-3.4c-3.6,7.7-7.1,15.4-10.4,23.2C296.6,265.8,296.2,265.2,295.5,265.3Z"/><path class="cls-1" d="M380.2,149.5a5.9,5.9,0,0,0,3-2.9l.8-1.8c3-7.3,4.4-10.9,6.8-17.3a8.3,8.3,0,0,0,.1,2.2c.5,3.2-1.7,8.1-3.3,9.9,0,0,4.2-2.6,4.7-9.5a74.3,74.3,0,0,1,1.4-10.4l-.4-.2c-2.9,7.9-6,15.8-9.2,23.6a1.3,1.3,0,0,0-1.8-1c-1.5.6-3.1,2.7-3.7,4.7S378.6,150.1,380.2,149.5Z"/><path class="cls-1" d="M371.5,284.7a18.8,18.8,0,0,0-.5,6.1c.3,2.1.9,2.7,1.3,1.4a17.6,17.6,0,0,0,.4-5,173.1,173.1,0,0,1,3.6-41.2l2.9.7c-1.2,8.3-2.1,16.4-2.6,24.8-.2-.8-.5-.8-.8.2a17.9,17.9,0,0,0-.9,6.5c.1,2.2.7,2.8,1.2,1.4a19.8,19.8,0,0,0,.7-6.4,258.8,258.8,0,0,1,3.5-31.6l-3.1-.6a188.8,188.8,0,0,0-4.3,27.8c-.1-1.2-.4-1.4-.9-.3a23.4,23.4,0,0,0-1,6.5c-.1,2.2.4,2.8.9,1.4a16.1,16.1,0,0,0,.7-3.1c-.2,4.6-.3,6.8-.2,11.3C372.2,283.8,371.9,283.8,371.5,284.7Z"/><path class="cls-1" d="M402.6,175.8l.8-1.3Z"/><path class="cls-1" d="M403.4,174.5c.2-.3.3-.7.5-1S403.6,174.2,403.4,174.5Z"/><path class="cls-1" d="M392.5,196c3.1-6.9,6.5-13.6,10.1-20.2A223.8,223.8,0,0,0,392.5,196Z"/><path class="cls-1" d="M387.1,208.3c.8-1.5,2.1-4.5,3-6.7s1.5-3.7,2.4-5.6l-1.8,4c.1-.6-.1-.5-.6.5a51.2,51.2,0,0,0-3.1,6.6C386.2,209.3,386.3,209.8,387.1,208.3Z"/><path class="cls-1" d="M411.1,164.7a223.7,223.7,0,0,0-12.7,23c.2-.7,0-.6-.7.3a44.8,44.8,0,0,0-3.4,6.6c-.9,2.1-.8,2.7.1,1.2a44.8,44.8,0,0,0,3.4-6.6A302.6,302.6,0,0,1,414,160.4a13.7,13.7,0,0,0-2.4.7c-2.7,4.1-5.3,8.2-7.7,12.4,1.7-2.8,3.4-5.6,5.2-8.4Z"/><path class="cls-1" d="M361.7,257.1a92.8,92.8,0,0,1-1.2,10.9s2.2-11,2.6-16.5c-5,7.1-11.1,23.8-11.1,23.8S357.8,259.7,361.7,257.1Z"/><path class="cls-1" d="M367.1,227.2a25.4,25.4,0,0,0,2.8-4.8c7.4-14.8,15.3-29.4,24.1-43.4a36.8,36.8,0,0,0,3.9-3c-3.4,5.1-5.2,7.9-8.8,14q.3-.7-.6.3a36.1,36.1,0,0,0-3.3,5c-.9,1.7-.9,2.3,0,1.1a39.4,39.4,0,0,0,2.9-4.5c3.9-6.4,7.8-12.8,12-19-5.4,4.5-8.3,6.3-15.4,8.5-3.9,7.4-7.8,14.7-11.6,22.1.2-.7-.1-.8-.9-.2a18.7,18.7,0,0,0-3.3,5.1c-.8,1.9-.6,2.6.4,1.7a19.3,19.3,0,0,0,3.1-4.6c3.6-7.1,7.3-14.2,11-21.1a40.6,40.6,0,0,0,5.2-2.2c-5.8,10-11.2,20.1-16.5,30.3.2-.6-.1-.7-.7,0A24.9,24.9,0,0,0,368,218c-.9,1.9-.8,2.6.2,1.5a33.2,33.2,0,0,0,3.3-5.5c5.6-10.8,11.3-21.5,17.4-32a37.7,37.7,0,0,0,4.8-2.8c-8.2,13.2-15.5,26.9-22.7,40.8.2-.7,0-.7-.6.1a34.5,34.5,0,0,0-3.3,5.6C366.2,227.7,366.2,228.4,367.1,227.2Z"/><path class="cls-1" d="M362.7,289.8c-.1-2.9,1.1-2.7,1.1-2.7s-.3-1.4-.4-2.4a25.9,25.9,0,0,1,.9-8.8c.4-1.8.7-6.6.9-8.9a77.7,77.7,0,0,1-1.5,8.5,36.4,36.4,0,0,0-.7,9.1l-.2.6c-1.1,2.8-.1,9.9-.1,9.9Z"/><path class="cls-1" d="M292,261.6h-.5c-1.8.2-2.7,7.5-2.7,7.5s.7-1.7,1.4-3.9,1.9.1,1.9.1.1-1.8.2-2.8c.8-4.1,1.9-5.2,3-6.5s2.1-5.6,2.7-8a17.9,17.9,0,0,1-3.2,6.3C293,256.3,292.3,259.7,292,261.6Z"/><path class="cls-1" d="M445.9,153l1.1-.3a19.6,19.6,0,0,0,6.3-4.8c1.5-1.7,1-2.5-1.1-1.7a17.1,17.1,0,0,0-6.3,4.7h0c-.7.8-1.1,1.1-1.7,1.9h-.6l-1.1,1.4h.5a179.7,179.7,0,0,0-12.3,16.4c-2.4-.2-3.5-.3-5.7-.3,3.8-5.8,5.8-8.7,10-14.1-.3.9.2,1.2,1.6.4a17.1,17.1,0,0,0,3.4-2.6h1.6l1.1-1.3h-1.4l1-1.2c1.4-1.8,1-2.6-.9-1.6a17.4,17.4,0,0,0-3.5,2.6H437l-1.1,1.3h.6a191.6,191.6,0,0,0-11.9,16.5,37,37,0,0,0-6,.4A175.4,175.4,0,0,1,430,153.9l4.1-.2,1.1-1.3H432a2.5,2.5,0,0,0,.8-.5,22,22,0,0,0,5.5-5.1c1.4-1.8,1.1-2.4-.6-1.3a22,22,0,0,0-5.5,5.1h0l-1.5,1.9h-.3l-1.1,1.4h.3a156.5,156.5,0,0,0-11.3,16.6l-4.2.7a160.5,160.5,0,0,1,11-16.7,21.1,21.1,0,0,1,3.5-.5l1.1-1.4-3.6.6a54.6,54.6,0,0,1,3.6-4.5c-.3.6.1.6,1.2-.1a35.6,35.6,0,0,0,3.1-2.8l1.4-.2,1.1-1.2h-1.2a8.7,8.7,0,0,0,.9-1.1c1.4-1.7,1.2-2.2-.4-1.1a22.5,22.5,0,0,0-3.1,2.6l-.6.2-1.1,1.2h.3l-.5.6-5,6.2h-.3l-1.1,1.4h.4a150.6,150.6,0,0,0-11,16.7,17.9,17.9,0,0,0-3.5,1,149.3,149.3,0,0,1,10.8-16.7l2.5-.7a7.6,7.6,0,0,1,1.1-1.4l-2,.5.7-.5a37.6,37.6,0,0,0,5-5.4c1.3-1.7,1.1-2.2-.3-1a36.2,36.2,0,0,0-4.9,5.3c-.6.8-.8,1.2-1.4,1.9l-.8.3a6.7,6.7,0,0,0-.9,1.4c.2-.2.4-.2.7-.3a254,254,0,0,0-16.7,27.9c6.8-2.4,13.2-2.3,20.3-2.3a233.2,233.2,0,0,1,19.1-27.2c2.1.2,3.1.3,5.4.7l1.2-1.3Zm-14.4-.9c-.1.2-.1.4,0,.4h-.4Zm-9.1,1.8q-.1.3,0,.3h-.3Zm-12.3,24a33.7,33.7,0,0,0-3.4,1,19.8,19.8,0,0,1,1.1-2l3.4-1Zm4.4-.8-4.1.7a11.8,11.8,0,0,1,1.1-1.9,37.3,37.3,0,0,1,4.1-.8Zm6.2-.4a36.5,36.5,0,0,0-5.9.4,19.8,19.8,0,0,0,1.1-2,53.2,53.2,0,0,1,6-.4Zm5.9.1h-5.5l1.2-2,5.5.2Zm18.1-23.9.4-.6c0,.3,0,.5.2.6Zm-27.9-.1c3.7-4.2,21.7-29.3,31-24.5,4.6,2.4,1.7,11.9.4,15.5,1.8-4.5,9.9-17.8,1.2-19.2-3.8-.6-10.8,3.6-15.8,7.9C426.7,138.5,422.5,145.8,416.8,152.8Z"/><path class="cls-1" d="M316.5,159.9c-.2-.7-1.3-.8-2.4-.4a2.2,2.2,0,0,0-1.5,1.7l.3,7.1-5.7,1.9-.3-6.5a2.3,2.3,0,0,0,1.8-.1c1.1-.4,1.8-1.3,1.5-1.9s-1.4-.9-2.4-.5-1.6,1.2-1.5,1.8l.4,7.4-5.6,1.8-.4-6.8a2.5,2.5,0,0,0,1.9-.1c1-.4,1.7-1.3,1.4-1.9s-1.3-.9-2.4-.5a2.2,2.2,0,0,0-1.5,1.7l.5,7.8-6.6,2.1-.4-6.5a2.5,2.5,0,0,0,1.9-.1c1-.5,1.7-1.4,1.4-2s-1.3-.9-2.4-.4-1.7,1.3-1.5,2l.8,11.9,20-6.5-.6-10.9a2.5,2.5,0,0,0,1.9-.1C316.2,161.5,316.8,160.6,316.5,159.9Zm-3.5,10v1.7l-5.7,1.9v-1.8Zm-6.2,2v1.7l-5.6,1.9v-1.8Zm-6.1,2v1.7l-6.6,2.2-.2-1.7Z"/><path class="cls-1" d="M162.6,260.6l-6.4-9.3-8.6,8.3,12.7,18.6a3.6,3.6,0,0,0-2.3,1.5c-.9,1.3-1.1,2.8-.3,3.4s2.2.1,3.2-1.2a3.2,3.2,0,0,0,.7-3.1c0-.2-12.3-18-12.3-18l7.6-7.3,4.4,6.5a3.4,3.4,0,0,0-2.2,1.5c-1,1.3-1.2,2.8-.4,3.4s2.3.1,3.3-1.2A3.1,3.1,0,0,0,162.6,260.6Z"/><path class="cls-1" d="M207.5,287l-8.9-3.4-4.1,8.6,11.9,4.6a2.9,2.9,0,0,0-.6,1.7c-.1,1.2.4,2.1,1.1,2.2s1.4-.9,1.4-2.1-.4-2.1-1.2-2.1l-11-4.3,3.7-7.6,7,2.7a2.5,2.5,0,0,0-.7,1.8c-.1,1.1.5,2.1,1.2,2.1s1.3-.9,1.4-2S208.2,287.1,207.5,287Z"/><path class="cls-1" d="M383.4,99.3,374,88.7l-22.2,16,5.9,6.6a2.3,2.3,0,0,0-1.4,1.2c-.6,1-.6,2.1,0,2.5s1.6-.2,2.2-1.2a1.9,1.9,0,0,0-.1-2.5l-4.8-5.5,6.9-4.9,4.8,5.4a2.4,2.4,0,0,0-1.5,1.2c-.5,1-.5,2.1.1,2.5s1.6-.2,2.2-1.2a2.5,2.5,0,0,0,.3-2l-.4-.5-5.1-5.7,6.9-5,6.4,7.1a2.3,2.3,0,0,0-1.5,1.3c-.6,1-.5,2.1.1,2.4s1.6-.1,2.1-1.2.6-1.9.1-2.3l-6.8-7.6,6.7-4.8,7.7,8.7a2.9,2.9,0,0,0-1.4,1.3c-.6,1-.5,2.1.1,2.4s1.6-.1,2.1-1.1S384,99.7,383.4,99.3Z"/><path class="cls-1" d="M260.6,344.8c-1.3-.4-2.4.5-3.3,1.2a4.7,4.7,0,0,0-1.4,3l-6.7-7-.9.8L260.7,356l.7.7.4-.9c.1-.2,2.5-5.4,1.1-8.3C262.5,346.6,261.6,345.1,260.6,344.8Zm.7,3.3c.8,1.7.2,4.5-.4,6.3l-3.8-4.1c-.1-.9,0-2.5.9-3.2a2,2,0,0,1,2-.6C260.6,346.7,261.1,347.6,261.3,348.1Z"/><path class="cls-1" d="M311.1,369.2a3.8,3.8,0,0,0-.1-1,2.3,2.3,0,0,1,2-3s-2.5-.8-3.1,2.2a15.1,15.1,0,0,0-.4,3.4l-.5,1,.5.4,5.8-7a3.1,3.1,0,0,0,1.5,1.2c1,.4,2.1.2,2.4-.5s-.4-1.5-1.5-1.9a2.5,2.5,0,0,0-1.2-.2l3.8-4.5a2.7,2.7,0,0,0,1.4,1.1,2.5,2.5,0,0,0,1.2.2l1.6,1.3.4-.5-1.2-1,.4-.4c.3-.7-.4-1.6-1.5-2a2.5,2.5,0,0,0-1.9-.1l-1.8-1.6-.5.6,1.8,1.5Z"/><path class="cls-1" d="M283.4,99.9l9.5-6.2-8.1-9L265.5,97a3.8,3.8,0,0,0-1.4-2.3c-1.3-1.1-2.9-1.3-3.5-.5s-.1,2.3,1.2,3.3a2.9,2.9,0,0,0,3,.8c.2.1,18.7-11.9,18.7-11.9l7.2,7.9L284,98.6a3.8,3.8,0,0,0-1.5-2.3c-1.3-1-2.8-1.2-3.5-.4s-.1,2.2,1.2,3.3A3.3,3.3,0,0,0,283.4,99.9Z"/><path class="cls-1" d="M211.5,333.9a2.8,2.8,0,0,0-1.3.3l.5-1.5a2.7,2.7,0,0,0,1.9.7c1.1,0,2.1-.6,2.1-1.3s-.9-1.3-2.1-1.3a2,2,0,0,0-2,1c-.1,0-4.6,12.7-4.6,12.7l.5.2,3.1-8.9a2.7,2.7,0,0,0,1.9.7c1.1,0,2.1-.6,2.1-1.3S212.7,333.9,211.5,333.9Z"/><path class="cls-1" d="M346.1,354.1s-10.7-15.4,7.8-23.4C353.9,330.7,340.9,335.8,346.1,354.1Z"/><path class="cls-1" d="M360.3,330.5c-.7,0-1.3.9-1.4,2s.4,2,1,2.1l7.9,3.2-1.9,7.4-11.1-4.4a2.8,2.8,0,0,0,.8-1.8c0-1.1-.5-2.1-1.2-2.1s-1.3.9-1.4,2a2.3,2.3,0,0,0,.8,2l11.9,4.8-1.9,7.6-14.7-5.8a2.5,2.5,0,0,0,.7-1.8c0-1.1-.5-2.1-1.2-2.1s-1.3.9-1.4,2,.5,2.1,1.2,2.2l15.3,6-1.8,6.7-5.7-2.3a3,3,0,0,0,.8-1.8c0-1.1-.5-2.1-1.2-2.1s-1.4.8-1.4,2a2,2,0,0,0,1,2.1l7.8,3.1,6.1-23.6-8.6-3.4a2.5,2.5,0,0,0,.8-1.8C361.6,331.5,361,330.5,360.3,330.5Z"/><path class="cls-2" d="M229,124.3c-23.3,5.4-46.5,17.3-70.5,19.5-26.4,2.3-34.2-16.3-38.7-38.3-.4-2.1-1-4-1.4-6.1.9,4.8,1.7,9.7,2.8,14.2,4.9,18.4,13.7,32.6,36.9,30.6s47.1-13.9,70.4-19.3c20.4-4.8,115.1-18.8,101.3,25l-3.3,4.2c12.8-45.6-78.7-31.5-101-26.2s-46,17.1-69.5,18.8-31.7-12.7-36.5-30.9c-1.3-4.8-2.4-9.7-3.3-14.8.8,4.5,1.4,9.1,2.5,13.4,4.6,19,13.2,34.3,36.8,32.8s46.7-13.3,69.4-18.7S337,108.9,325.8,154.9h0l-3.4,4.4c10.3-47.4-74.8-33.6-100.4-27.5-22.4,5.3-45.5,16.8-68.6,17.9-26,1.2-33.5-18.1-37.8-39.5-.5-2.6-1.1-5.1-1.6-7.6.3,1.8.5,3.8.8,5.7,4.2,22.3,11.3,43.1,38.2,41.9,23.1-.9,46.1-12.4,68.4-17.7,26-6.2,110.4-19.9,100.3,27.7l-4,5.4c3.1-16.6-.2-25.3-17.1-30.6-26.2-8.1-56.4-4.6-82.6,1.6-21.8,5.2-44.8,16.4-67.4,16.9s-31.5-15.6-35.9-34.4c-1.1-4.8-2.2-9.7-3-14.6.9,5.7,1.8,11.7,3.2,17.2,4.5,17.8,13.1,32.7,35.2,32.3s45.6-11.4,67.3-16.6c26.1-6.2,56.2-9.8,82.3-1.7,17.1,5.4,20.4,14.2,17.3,30.8l-3.6,5c2.8-17.1-.1-26.6-17.8-32-25.8-7.9-55.5-4.2-81.1,1.8-21.4,5.1-44.2,16-66.4,15.8s-30.2-15-34.7-32.5c-1.5-6-2.7-12.2-3.7-18.3.8,5.3,1.6,10.9,2.8,16.2,4.3,18.6,12.5,34.9,35.2,35.2s44.9-10.5,66.2-15.6c25.6-6,55.1-9.7,80.8-1.9,17.9,5.5,20.8,15.1,18,32.3-7.7,10.7-15,21.8-21.8,33,2.1-19.2.9-34-20.6-39.3-23.8-5.9-49.8-2.1-73.3,3.2-19.1,4.3-41.1,13-60.9,9.6C114,175.3,106.6,155.8,103,136q-1.6-9-2.7-17.4c.8,6.6,1.5,13.9,2.9,20.9,3.9,18.8,11.6,36.6,32.6,40.4s41.7-5.2,60.7-9.5c23.4-5.2,49.4-9.1,73.1-3.3,21.6,5.3,22.8,20.3,20.6,39.6l-3,5.2c2.1-19.7,1.2-35.4-21-40.6s-48.9-1.5-72,3.7c-18.7,4.2-40.6,12.5-60,8.6s-28.5-22.3-32.3-41.1c-1.4-7.2-2.4-14.3-3.2-21,.7,5.7,1.3,12.1,2.4,18.3,3.5,20,10.8,40.1,32.8,44.6,19.4,3.9,41.2-4.3,59.8-8.5,23.1-5.2,48.5-9.2,71.9-3.8s23.1,21,21,40.7l-2.8,4.9c2-20,1.4-36.5-21.4-41.6s-48.1-.8-70.8,4.3c-18.4,4.1-40,12.1-59.1,7.8-22.7-5.1-29.7-26.8-33.1-47.6-.9-5.6-1.6-10.8-2.2-16,.6,5.7,1.2,12.1,2.3,18.2,3.4,20.4,10.6,41.1,32.7,46.2,19,4.3,40.6-3.6,59-7.7,22.6-5.1,47.5-9.5,70.6-4.4s23.5,21.7,21.4,41.8l-2.8,5.1c2-20.5,1.6-37.8-21.9-42.7s-47.2,0-69.4,5.1c-18.2,4.2-39.6,11.8-58.3,7.1-21.9-5.4-29.2-26.2-32.7-46.7-.3-1.7-.6-3.5-.8-5.3-.7-4.5-1.3-8.7-1.8-12.9,2.9,24.6,6.3,58.5,35,65.7,18.7,4.8,40.1-2.8,58.3-7,22.1-5.1,46.5-9.8,69.2-5.2s23.9,22.2,21.9,42.7l-2.1,3.9c2-20.7,1.7-38.6-22.3-43.2s-46.5.9-68.4,6.1c-17.9,4.2-39.2,11.6-57.7,6.6-24-6.4-30.4-31-33.6-53.3-.6-4.4-1.3-8.5-1.7-12.6.5,5,1,10.7,1.9,16.1,3.3,21.6,10.2,44.4,33.2,50.6,18.5,5,39.7-2.3,57.6-6.6,21.9-5.2,45.7-10.4,68.2-6.2,24.2,4.5,24.4,22.6,22.4,43.4-1.5,23.1.8,43.4,20.4,58.5a74.3,74.3,0,0,0,19.3,10.8c-8.4-.9-16.6,2.9-20.4,9.5a18.3,18.3,0,0,0-1.6,14.4,10.4,10.4,0,0,0,6.1,6.5,15.1,15.1,0,0,0,6.5,1,15.3,15.3,0,0,0,5.1-1.3,9.7,9.7,0,0,0,4.9-6.1,7.3,7.3,0,0,0-.8-6,8.4,8.4,0,0,0-6.7-3.3c-1.6.1-6.6,2-3,7-2.5-4.6,1.6-5.5,3.1-5.5a7,7,0,0,1,5.4,2.6,6.1,6.1,0,0,1,.6,4.8,8.4,8.4,0,0,1-4.2,5.3c-2.6,1.3-7.4,1.4-10.4.2a8.8,8.8,0,0,1-5.2-5.6c-1.4-4-.1-9.7,2.4-13.5,6.1-9.5,20.1-8.3,27.9-6.8l4.8,1.1h.4a42.9,42.9,0,0,0,7.9,1.1c13.6,1.5,30.1,2.4,43.5-2.1,27.3-9.4,40.3,17.7,39.3,27-1.5,14-14.3,17.1-20,26.5,1.5.4,49.5-3.2,71.8,35.2,2.7-5.1,10.6-26.9,21.8-36.1,4.1-3.3,7.2-4.2,11.1-4.1s13.5,2,27.3,1.2c10.5-.7,13.5-5,14.9-8.7a28.3,28.3,0,0,0,1.1-3.1c1.3-3.7-2.2-7.7-2.2-10.9s2.1-5.2,4.3-6.4a5.2,5.2,0,0,0,2.2-4.2c.2-1.4-.6-3-1.9-4.5a8.3,8.3,0,0,0-3.7-2.2c.4-.1,1.3.5,2.3-.2a8.5,8.5,0,0,0,4-9.1c-.9-.8-4.8-8.4-.5-11.1,1.4-.6,5.3-1.1,8.2-3.8s4-5.8,2.4-9.1-6.6-5-10.6-10.7c-2.6-3.7-10.4-12.3-11.7-18.6-.4-2,0-8,.3-12.2s-1.2-15.9-4-24.8-4.7-12.4-8.5-19.7c-17-33-50.5-29.5-63.4-32.3-18.7-4.2-47.7-8.8-63.7,6.2a34.3,34.3,0,0,0-6.1,8.3,25.6,25.6,0,0,1,3.6-4.4c14.9-13.7,37.5-6.9,55.1-2.4-15.8-2.9-33.7-6.1-48.7.1-6.6,2.8-9.9,7.7-13.4,13.1l.9-1c15.3-15.3,39.3-7.5,57.5-3.4-19.3-3.8-42.9-10.6-58.6,5.5-6.2,6.4-8.3,16.7-17,20.5-13.4,6-36.6-6.4-46.1-14.6s-11.6-17.3-9-28.5c1.1-1.5,2.2-3,3.4-4.4-3,10.8-.5,20.4,7.9,28.1s32.6,21.4,45.7,16c5.4-2.3,8.1-7.1,10.9-11.9a3.9,3.9,0,0,1-.8,1c-9.7,11.8-21.1,8.8-34.4,3.6-17.4-6.9-33.6-17.5-28.6-37.7l3.2-4.2c-4.3,13.8,2.4,23.5,14.1,30.7,10,6.2,30.1,16.7,42.2,9.8,3.7-2.2,6.1-5.8,8.3-9.6a21.7,21.7,0,0,1-6.7,6.8c-12.3,7.3-32.5-2.7-43-8.9s-18.6-16.1-14.2-29.7C344.5,105.7,249.1,119.6,229,124.3Zm61.8,82v-.4c6.9-11.3,14.2-22.3,21.8-33.1v.2c-5.4,28.9,21.5,56.7,49.5,53.7,12.1-1.2,15.2-20,27.1-20.3,5-.2-6.1,9.4-11.4,14-1.9,1.6-5.3,4.7-8.2,4.6,5.4.7,8.4-3,12.6-6.1s10.5-5.6,15.8-5.1c1.3.1-6.4,3-11.2,5.2-7.4,3.4-10.3,14.9-39.2,22.8s-39.9-26.6-39.9-26.6-2.6-10.1-2.5-14.7c-.2,4-.2,18.7,8,29.8,9.7,13,19.4,20.1,42.9,11.4s23.2-11.8,29.6-15.3c2.5-1.4-7.2,8.3-11.1,11.8,4.2-3.5,10-5.1,15-6.2s-2,4.6-7,7.8c-12.1,7.9-23.1,27.9-38.1,29C309.4,271.1,287.6,238.1,290.8,206.3Zm-7.1,11.8,2.8-4.9h0c-1.3,18.8-.3,35.6,14.3,49.3C311.7,273,329.3,282,345,279.8c7.2-1.1,18.2-9.9,24.9-12.6,11.7-4.7,7.4.2-4.7,5.9-6.9,3.3-13.4,7.7-21,9.2-15.9,3.1-33.6-5.1-45.2-15.5C284.1,253.4,282.8,236.9,283.7,218.1Zm84.1,76.6c-9.2,2.1-18.4,4.8-27.9,4.8-14.6,0-29.6-5.5-41.3-14.2-19.4-14.4-22-33.8-20.8-56.4l2.1-3.9c-2.9,32.3,10.4,58.5,44.1,67.9,19.8,5.6,38-2.7,56.9-5.8a46.2,46.2,0,0,1,10.9.3c-4.3,1.9-10.2,1-14.1,4.1,4.6-2.4,9.7-2,14.7-1.2C384.2,291.4,376,292.8,367.8,294.7Zm20.3-13.3c-19.1,3.4-38.5,14.1-58.6,10.7-36-6.1-52-34.6-49.1-68,.9-1.7,1.8-3.4,2.8-5.1-1.2,18.2-.7,35,12.6,49,11,11.5,28.4,20.3,44.7,19.9,8.9-.2,17.1-3.8,25.5-6.4C379.7,277.4,392.2,280.7,388.1,281.4ZM368,262.9c-6.7,3.6-15.9,11.2-23.7,12.6-13.9,2.3-29.6-5.3-40-13.7C288,248.5,286,232,287.1,212.3h0c1-1.8,2.1-3.5,3.1-5.2v.3c-3.6,31.1,13.2,61,47.7,64.5,11.5,1.2,18.7-4.5,28.3-9.6,7.8-4.2,18.2-12.6,25.2-13C396.1,248.9,381.4,255.6,368,262.9Zm22.7-73.4c12.6-12.2,30.8-9.2,46.8-5.8-13.4-2.6-28.2-3.9-40.2,2.2-5.1,2.5-8.6,6.3-11.6,10.3A33.4,33.4,0,0,1,390.7,189.5Zm5.1,1.4a33.9,33.9,0,0,1,14.9-2.4c-3.3.5-6.8,1.4-9.2,3a16.4,16.4,0,0,1,6.6.3c-8.4.8-16.4,3.5-23.1,10s-8.6,15.2-16.8,18.6c-13.5,5.7-35.7-6.9-44.9-15.5s-11.2-19.8-10-33h.1l3.6-5c-4.4,25.1,13.6,40,36.7,47.1C379.1,221.6,377.5,198.8,395.8,190.9Zm-65.8,0c8.8,8.3,31.8,21.9,44.9,16.6A12.2,12.2,0,0,0,379,205c-4.8,5.5-10.6,9.1-22.2,6.2-23.1-5.7-43.2-20.2-39.1-45.3l4-5.4C318.8,172.1,321.2,182.5,330,190.9Z"/><path class="cls-3" d="M225.9,123.3c-23.3,5.4-46.6,17.3-70.5,19.5-26.5,2.3-34.2-16.3-38.7-38.3-.4-2.1-1-4-1.4-6.1.9,4.8,1.6,9.7,2.8,14.2,4.9,18.4,13.6,32.6,36.9,30.6s47.1-13.9,70.3-19.3c20.4-4.8,115.2-18.8,101.4,25l-3.3,4.2c12.8-45.6-78.7-31.5-101-26.2s-46,17.1-69.6,18.8-31.6-12.7-36.4-30.9c-1.3-4.8-2.4-9.7-3.3-14.8.7,4.5,1.4,9.1,2.5,13.4,4.6,19,13.1,34.3,36.8,32.8s46.6-13.3,69.4-18.7,112.1-19.6,100.9,26.4h0l-3.4,4.4c10.3-47.4-74.8-33.6-100.4-27.5-22.4,5.3-45.5,16.8-68.6,17.9-26,1.2-33.5-18.1-37.8-39.5-.5-2.6-1.2-5.1-1.6-7.7.3,1.9.5,3.9.8,5.8,4.2,22.3,11.3,43.1,38.1,41.9,23.1-.9,46.2-12.4,68.5-17.7,26-6.2,110.4-19.9,100.3,27.7l-4,5.4c3.1-16.6-.2-25.3-17.2-30.6-26.2-8.1-56.4-4.6-82.5,1.6-21.9,5.2-44.8,16.4-67.5,16.9S116,137,111.6,118.2c-1.2-4.8-2.2-9.7-3-14.6.9,5.7,1.8,11.7,3.2,17.2,4.5,17.8,13,32.7,35.2,32.3s45.5-11.4,67.3-16.6c26.1-6.2,56.2-9.8,82.3-1.7,17.1,5.4,20.3,14.2,17.3,30.8l-3.6,5c2.8-17.1-.1-26.6-17.9-32-25.7-7.9-55.4-4.2-81.1,1.8-21.3,5.1-44.1,16-66.3,15.8s-30.2-15-34.7-32.5c-1.5-6-2.7-12.2-3.7-18.3.8,5.3,1.6,10.9,2.8,16.2,4.3,18.6,12.5,34.9,35.1,35.2s45-10.5,66.2-15.6c25.6-6,55.2-9.7,80.9-1.9,17.8,5.5,20.8,15.1,17.9,32.3-7.6,10.7-14.9,21.8-21.7,33,2.1-19.2.9-34-20.6-39.3-23.8-5.9-49.8-2.1-73.4,3.2-19,4.3-41,13-60.8,9.6-22.1-3.8-29.5-23.3-33.2-43.1-1.1-6-1.9-11.8-2.6-17.4.8,6.6,1.5,13.9,2.9,20.9,3.8,18.8,11.6,36.6,32.6,40.4s41.7-5.2,60.7-9.5c23.4-5.2,49.3-9.1,73.1-3.3,21.6,5.3,22.8,20.3,20.6,39.6l-3.1,5.2c2.2-19.7,1.3-35.4-20.9-40.6s-49-1.5-72,3.7c-18.8,4.2-40.6,12.5-60,8.6s-28.5-22.3-32.3-41.1c-1.4-7.2-2.4-14.3-3.2-21,.7,5.7,1.3,12.1,2.4,18.3,3.5,20,10.8,40.1,32.8,44.6,19.4,3.9,41.2-4.4,59.8-8.5,23-5.2,48.4-9.2,71.8-3.8s23.2,21,21.1,40.7l-2.9,4.9c2.1-20,1.5-36.5-21.3-41.6s-48.1-.8-70.8,4.3c-18.4,4.1-40,12.1-59.1,7.8-22.7-5.1-29.7-26.8-33.1-47.6-.9-5.6-1.7-10.8-2.3-16,.7,5.7,1.3,12.1,2.3,18.2,3.5,20.4,10.7,41.1,32.8,46.2,19,4.3,40.6-3.6,59-7.7,22.6-5.1,47.5-9.5,70.6-4.4s23.5,21.7,21.4,41.8c-1,1.7-1.9,3.4-2.8,5.1,2-20.5,1.6-37.8-21.9-42.7s-47.2,0-69.4,5.1c-18.2,4.2-39.6,11.8-58.4,7.1-21.9-5.4-29.1-26.2-32.6-46.7-.3-1.7-.6-3.5-.8-5.3-.7-4.5-1.3-8.7-1.8-12.9,2.9,24.6,6.3,58.5,35,65.7,18.7,4.8,40.1-2.8,58.2-7,22.2-5.1,46.6-9.9,69.3-5.2s23.9,22.2,21.9,42.7l-2.1,3.9c2-20.7,1.7-38.6-22.4-43.2-22.5-4.2-46.4.9-68.3,6.1-18,4.2-39.2,11.6-57.7,6.6-24-6.4-30.5-31-33.6-53.3-.7-4.4-1.3-8.5-1.8-12.6.6,5,1.1,10.7,2,16.1,3.3,21.6,10.2,44.4,33.1,50.6,18.6,5,39.8-2.3,57.7-6.6,21.8-5.2,45.7-10.4,68.2-6.2,24.2,4.5,24.4,22.6,22.4,43.4-1.5,23.1.8,43.4,20.4,58.5A77.4,77.4,0,0,0,314,297.7c-8.5-.9-16.7,2.9-20.4,9.5a18.3,18.3,0,0,0-1.6,14.4,10.4,10.4,0,0,0,6.1,6.5,13.7,13.7,0,0,0,6.5.9,13.2,13.2,0,0,0,5.1-1.2,9.7,9.7,0,0,0,4.9-6.1,7.3,7.3,0,0,0-.9-6,8.2,8.2,0,0,0-6.6-3.3c-1.6.1-6.7,2-3,7-2.5-4.6,1.6-5.5,3-5.5s4.5,1.1,5.4,2.6a5.7,5.7,0,0,1,.7,4.8,8.4,8.4,0,0,1-4.2,5.3c-2.6,1.3-7.4,1.4-10.4.2a9.2,9.2,0,0,1-5.3-5.6c-1.3-4-.1-9.7,2.4-13.5,6.2-9.5,20.2-8.3,28-6.8l4.8,1.1h.4a43.1,43.1,0,0,0,7.8,1.1c13.7,1.5,30.2,2.4,43.6-2.1,27.3-9.4,40.2,17.7,39.2,27-1.4,14-14.2,17.1-19.9,26.5,1.5.4,49.5-3.2,71.7,35.2,2.8-5.1,10.7-26.9,21.9-36.1,4-3.3,7.1-4.2,11.1-4.1s13.5,2,27.3,1.2c10.5-.7,13.5-5,14.9-8.7a28.3,28.3,0,0,0,1.1-3.1c1.3-3.7-2.2-7.7-2.2-10.9s2.1-5.2,4.3-6.4a4.9,4.9,0,0,0,2.1-4.2c.3-1.4-.5-3-1.8-4.5a8.3,8.3,0,0,0-3.7-2.2c.4-.1,1.2.5,2.3-.2a8.5,8.5,0,0,0,4-9.1c-.9-.8-4.8-8.4-.5-11.1,1.3-.6,5.3-1.1,8.2-3.8s4-5.8,2.4-9.1-6.6-5-10.6-10.7c-2.6-3.7-10.4-12.3-11.7-18.6-.4-2,0-8,.3-12.2s-1.2-15.9-4-24.8-4.7-12.4-8.5-19.7c-17-33-50.6-29.5-63.4-32.3-18.7-4.2-47.7-8.8-63.7,6.2a31.8,31.8,0,0,0-6.1,8.3,25.6,25.6,0,0,1,3.6-4.4c14.8-13.7,37.5-6.9,55.1-2.4-15.9-2.9-33.8-6.1-48.7.1-6.6,2.8-9.9,7.7-13.4,13l.9-.9c15.3-15.3,39.3-7.5,57.4-3.4-19.2-3.8-42.9-10.6-58.5,5.5-6.3,6.4-8.4,16.7-17,20.5-13.4,6-36.6-6.4-46.1-14.6s-11.6-17.3-9.1-28.5l3.4-4.4c-3,10.8-.4,20.4,8,28.1s32.5,21.4,45.7,16c5.4-2.3,8.1-7.1,10.9-11.9l-.8,1c-9.7,11.8-21.2,8.8-34.5,3.6-17.3-6.9-33.5-17.5-28.6-37.7l3.3-4.2c-4.4,13.8,2.4,23.5,14,30.7,10,6.2,30.2,16.7,42.2,9.8,3.8-2.2,6.2-5.8,8.4-9.6a21.7,21.7,0,0,1-6.7,6.8c-12.3,7.3-32.5-2.7-43-8.9s-18.6-16.1-14.2-29.7C341.4,104.7,246,118.6,225.9,123.3Zm61.8,82v-.4c6.8-11.3,14.1-22.3,21.8-33.1v.2c-5.4,28.9,21.5,56.7,49.5,53.7,12.1-1.3,15.2-20,27.1-20.4,5-.1-6.1,9.5-11.4,14.1-1.9,1.6-5.3,4.7-8.2,4.6,5.4.7,8.4-3,12.6-6.1s10.4-5.6,15.8-5.1c1.3.1-6.4,3-11.2,5.2-7.4,3.4-10.4,14.9-39.3,22.8s-39.8-26.6-39.8-26.6-2.6-10.1-2.6-14.7c-.1,4-.2,18.7,8.1,29.8,9.7,13,19.4,20.1,42.8,11.4s23.3-11.8,29.7-15.3c2.5-1.4-7.2,8.3-11.1,11.7,4.1-3.4,9.9-5,15-6.1s-2,4.6-7.1,7.8c-12.1,7.9-23.1,27.9-38.1,28.9C306.3,270.1,284.5,237.1,287.7,205.3Zm-7.1,11.8c.9-1.7,1.9-3.3,2.8-4.9h0c-1.3,18.8-.3,35.6,14.3,49.3,10.9,10.4,28.5,19.4,44.1,17.2,7.3-1.1,18.3-9.9,25-12.6,11.7-4.7,7.4.2-4.7,5.9-6.9,3.3-13.4,7.7-21,9.2-15.9,3.1-33.6-5.1-45.2-15.5C281,252.4,279.6,235.9,280.6,217.1Zm84.1,76.6c-9.2,2.1-18.4,4.8-27.9,4.8-14.7,0-29.6-5.5-41.3-14.2-19.4-14.4-22-33.8-20.8-56.4l2.1-3.9c-2.9,32.3,10.4,58.5,44.1,67.9,19.8,5.6,37.9-2.7,56.9-5.8a46.2,46.2,0,0,1,10.9.3c-4.3,1.9-10.2,1-14.1,4.1,4.6-2.4,9.6-2,14.7-1.2C381.1,290.4,372.9,291.8,364.7,293.7Zm20.2-13.3c-19.1,3.4-38.4,14.1-58.5,10.7-36-6.1-52-34.6-49.2-68l2.9-5.1c-1.3,18.2-.8,35,12.6,49,11,11.5,28.4,20.3,44.7,19.9,8.9-.2,17.1-3.8,25.5-6.4C376.6,276.4,389,279.7,384.9,280.4Zm-20-18.5c-6.7,3.6-15.9,11.2-23.7,12.6-13.9,2.3-29.7-5.3-40-13.7-16.4-13.3-18.3-29.8-17.2-49.5h0c1-1.8,2-3.5,3.1-5.2a.4.4,0,0,1-.1.3c-3.5,31.1,13.3,60.9,47.8,64.5,11.5,1.2,18.7-4.5,28.3-9.6,7.8-4.2,18.2-12.6,25.2-13C393,247.9,378.3,254.6,364.9,261.9Zm22.7-73.4c12.5-12.2,30.8-9.2,46.8-5.8-13.4-2.6-28.2-3.9-40.2,2.1-5.1,2.6-8.6,6.4-11.6,10.4A33.4,33.4,0,0,1,387.6,188.5Zm5.1,1.4a33.9,33.9,0,0,1,14.9-2.4c-3.4.5-6.8,1.4-9.2,3a16.4,16.4,0,0,1,6.6.3c-8.4.8-16.4,3.5-23.1,10s-8.6,15.2-16.8,18.6c-13.5,5.7-35.7-6.9-44.9-15.5s-11.2-19.8-10-33h0l3.6-5c-4.4,25.1,13.6,40,36.8,47.1C376,220.6,374.4,197.8,392.7,189.9Zm-65.8,0c8.7,8.3,31.8,21.9,44.9,16.6a11.8,11.8,0,0,0,4-2.5c-4.7,5.5-10.5,9.1-22.1,6.2-23.1-5.7-43.3-20.2-39.1-45.3l3.9-5.4C315.7,171.1,318.1,181.5,326.9,189.9Z"/><path class="cls-4" d="M223.7,123.5c-23.3,5.4-46.5,17.3-70.5,19.5-26.4,2.3-34.2-16.3-38.7-38.3-.4-2-1-4-1.4-6.1.9,4.8,1.7,9.7,2.8,14.2,4.9,18.4,13.7,32.6,36.9,30.6s47.1-13.9,70.4-19.3c20.4-4.8,115.1-18.8,101.3,25l-3.3,4.2c12.8-45.6-78.7-31.5-101-26.2s-46,17.1-69.5,18.8S119,133.2,114.2,115c-1.2-4.8-2.4-9.7-3.3-14.8.8,4.5,1.4,9.1,2.5,13.4,4.7,19,13.2,34.3,36.8,32.8s46.7-13.3,69.4-18.7,112.1-19.6,100.9,26.4h0l-3.4,4.4c10.3-47.4-74.8-33.6-100.4-27.5-22.4,5.3-45.5,16.8-68.6,17.9-26,1.2-33.5-18.1-37.8-39.5-.5-2.6-1.1-5-1.6-7.6.3,1.8.5,3.8.8,5.7,4.2,22.3,11.3,43.1,38.2,42,23.1-1,46.1-12.5,68.4-17.8,26-6.2,110.4-19.9,100.3,27.7l-4,5.4c3.1-16.6-.2-25.3-17.1-30.6-26.2-8.1-56.4-4.6-82.6,1.6-21.8,5.2-44.7,16.5-67.4,16.9s-31.5-15.6-35.9-34.4c-1.1-4.8-2.2-9.7-3-14.6.9,5.7,1.8,11.7,3.2,17.2,4.5,17.8,13.1,32.7,35.2,32.4s45.6-11.5,67.3-16.7c26.1-6.2,56.2-9.7,82.3-1.6,17.1,5.3,20.4,14.1,17.3,30.7l-3.6,5c2.8-17.1-.1-26.6-17.8-32-25.8-7.9-55.5-4.2-81.1,1.8-21.4,5.1-44.2,16-66.4,15.8s-30.2-15-34.7-32.5c-1.5-6-2.7-12.2-3.7-18.3.8,5.3,1.6,10.9,2.8,16.2,4.3,18.6,12.5,34.9,35.2,35.2s44.9-10.5,66.2-15.6c25.6-6,55.2-9.7,80.8-1.8,17.9,5.4,20.8,15.1,18,32.2-7.7,10.7-15,21.8-21.8,33,2.1-19.2.9-34-20.5-39.3-23.9-5.9-49.9-2.1-73.4,3.2-19.1,4.3-41.1,13-60.9,9.6-22.1-3.8-29.5-23.3-33.1-43-1.1-6.1-2-11.9-2.7-17.5.8,6.6,1.5,13.9,3,20.9,3.8,18.8,11.5,36.6,32.5,40.4s41.7-5.2,60.7-9.5c23.4-5.2,49.4-9.1,73.1-3.3,21.7,5.3,22.8,20.3,20.6,39.6l-3,5.2c2.1-19.7,1.2-35.4-21-40.6s-48.9-1.5-72,3.7c-18.7,4.2-40.6,12.5-60,8.6s-28.5-22.3-32.3-41.1c-1.4-7.2-2.4-14.3-3.2-21,.7,5.7,1.3,12.2,2.4,18.3,3.5,20,10.8,40.1,32.8,44.6,19.4,3.9,41.2-4.3,59.8-8.5,23.1-5.2,48.5-9.2,71.9-3.8s23.1,21.1,21,40.8c-1,1.6-1.9,3.2-2.8,4.9,2-20.1,1.4-36.6-21.4-41.7s-48.1-.8-70.8,4.3c-18.4,4.1-40,12.1-59.1,7.8-22.7-5.1-29.7-26.8-33.1-47.6-.9-5.6-1.6-10.8-2.2-16,.6,5.7,1.2,12.1,2.3,18.2,3.4,20.4,10.6,41.1,32.7,46.2,19,4.3,40.7-3.6,59-7.7,22.6-5.1,47.5-9.5,70.6-4.4s23.5,21.7,21.4,41.8l-2.8,5.1c2-20.5,1.6-37.8-21.9-42.6s-47.2-.1-69.4,5.1c-18.1,4.1-39.6,11.7-58.3,7.1-21.9-5.5-29.2-26.3-32.7-46.7-.3-1.8-.6-3.6-.8-5.3-.7-4.6-1.3-8.8-1.8-13,2.9,24.6,6.3,58.5,35,65.7,18.7,4.8,40.1-2.8,58.3-7,22.1-5.1,46.5-9.8,69.2-5.2s23.9,22.2,21.9,42.7l-2.1,4c2-20.8,1.7-38.7-22.3-43.3s-46.5.9-68.4,6.1c-17.9,4.2-39.2,11.6-57.7,6.6-24-6.3-30.4-31-33.6-53.3-.6-4.4-1.3-8.5-1.7-12.6.5,5,1,10.7,1.9,16.1C94,169,100.9,191.9,123.9,198c18.5,5,39.7-2.3,57.7-6.6,21.8-5.1,45.6-10.4,68.1-6.2,24.2,4.5,24.4,22.6,22.4,43.4-1.5,23.1.8,43.4,20.4,58.5a74.3,74.3,0,0,0,19.3,10.8c-8.4-.9-16.6,2.9-20.4,9.5a18.5,18.5,0,0,0-1.6,14.5,10.9,10.9,0,0,0,6.1,6.5,17.4,17.4,0,0,0,6.5.9,15.3,15.3,0,0,0,5.1-1.3,9.7,9.7,0,0,0,4.9-6.1,7.3,7.3,0,0,0-.8-6,8.1,8.1,0,0,0-6.7-3.2c-1.6,0-6.6,1.9-2.9,6.9-2.6-4.6,1.6-5.5,3-5.5a7,7,0,0,1,5.4,2.6,5.7,5.7,0,0,1,.6,4.8,8.4,8.4,0,0,1-4.2,5.3c-2.6,1.3-7.4,1.4-10.4.2a8.8,8.8,0,0,1-5.2-5.6c-1.4-4-.1-9.7,2.4-13.5,6.1-9.5,20.1-8.3,27.9-6.8l4.8,1.1h.4a42.9,42.9,0,0,0,7.9,1.1c13.6,1.5,30.1,2.4,43.5-2.1,27.3-9.4,40.3,17.7,39.3,27-1.5,14-14.3,17.1-20,26.5,1.5.4,49.5-3.2,71.8,35.2,2.7-5.1,10.6-26.9,21.8-36.1,4.1-3.3,7.2-4.2,11.1-4.1s13.5,2,27.3,1.2c10.5-.7,13.5-5,15-8.7.4-1,.6-2,1-3.1,1.3-3.7-2.2-7.7-2.2-10.9s2.1-5.2,4.3-6.4a5.2,5.2,0,0,0,2.2-4.2c.2-1.4-.6-3-1.9-4.5a8.3,8.3,0,0,0-3.7-2.2c.4-.1,1.3.5,2.3-.1a8.7,8.7,0,0,0,4-9.2c-.9-.8-4.8-8.4-.5-11.1,1.4-.6,5.3-1.1,8.2-3.8s4-5.8,2.4-9.1-6.6-5-10.6-10.7c-2.6-3.7-10.4-12.3-11.7-18.6-.4-2,0-8,.3-12.2s-1.2-15.9-4-24.8-4.7-12.4-8.5-19.7c-17-33-50.5-29.5-63.4-32.3-18.7-4.2-47.7-8.8-63.7,6.2a34.3,34.3,0,0,0-6.1,8.3,25.6,25.6,0,0,1,3.6-4.4c14.9-13.7,37.6-6.9,55.1-2.4-15.8-2.9-33.7-6.1-48.7.1-6.6,2.8-9.9,7.8-13.4,13.1l.9-1c15.3-15.3,39.3-7.5,57.5-3.4-19.3-3.8-42.9-10.6-58.6,5.5-6.2,6.4-8.3,16.7-17,20.6-13.3,5.9-36.6-6.4-46.1-14.7s-11.6-17.3-9-28.5c1.1-1.5,2.2-3,3.4-4.4-3,10.8-.5,20.4,7.9,28.1s32.6,21.4,45.7,16c5.4-2.3,8.1-7.1,10.9-11.9a3.9,3.9,0,0,1-.8,1c-9.7,11.8-21.1,8.8-34.4,3.6-17.4-6.8-33.6-17.5-28.6-37.7l3.2-4.2c-4.3,13.8,2.4,23.5,14.1,30.7,10,6.2,30.1,16.7,42.2,9.8,3.7-2.2,6.1-5.8,8.3-9.6a21.7,21.7,0,0,1-6.7,6.8c-12.3,7.3-32.5-2.7-43-8.9s-18.6-16.1-14.2-29.7C339.2,104.9,243.8,118.8,223.7,123.5Zm61.8,82v-.4c6.9-11.2,14.2-22.3,21.8-33.1v.2c-5.4,28.9,21.5,56.7,49.5,53.7,12.1-1.2,15.2-19.9,27.1-20.3,5-.2-6,9.4-11.4,14-1.9,1.6-5.3,4.7-8.2,4.6,5.4.7,8.4-3,12.6-6.1s10.5-5.6,15.8-5.1c1.3.1-6.3,3-11.2,5.2-7.4,3.4-10.3,14.9-39.2,22.8s-39.9-26.6-39.9-26.6-2.6-10.1-2.5-14.7c-.2,4-.2,18.7,8,29.8,9.7,13,19.4,20.2,42.9,11.4s23.2-11.8,29.6-15.3c2.5-1.4-7.2,8.3-11.1,11.8,4.2-3.5,10-5.1,15-6.2s-2,4.6-7,7.8c-12.1,7.9-23.1,28-38.1,29C304.1,270.3,282.3,237.3,285.5,205.5Zm-7.1,11.8,2.8-4.9h0c-1.3,18.8-.3,35.6,14.3,49.4,10.9,10.3,28.5,19.3,44.2,17.1,7.2-1.1,18.2-9.9,24.9-12.5,11.7-4.7,7.4.1-4.7,5.8-6.9,3.3-13.4,7.7-21,9.2-15.9,3.1-33.6-5.1-45.2-15.4C278.8,252.7,277.5,236.1,278.4,217.3Zm84.1,76.6c-9.2,2.1-18.3,4.8-27.9,4.8-14.6,0-29.6-5.5-41.3-14.1-19.4-14.5-22-33.9-20.8-56.5l2.1-3.9c-2.9,32.3,10.4,58.5,44.1,67.9,19.8,5.6,38-2.7,57-5.8,2.4-.4,6.3-.2,10.9.3-4.4,1.9-10.3,1-14.2,4.1,4.6-2.4,9.7-2,14.7-1.2C378.9,290.6,370.7,292,362.5,293.9Zm20.3-13.3c-19.1,3.4-38.5,14.1-58.6,10.7-36-6.1-52-34.6-49.1-68,.9-1.7,1.8-3.4,2.8-5.1-1.2,18.2-.7,35,12.6,49,11,11.5,28.4,20.3,44.7,19.9,8.9-.1,17.1-3.8,25.5-6.4C374.5,276.6,386.9,279.9,382.8,280.6Zm-20.1-18.5c-6.7,3.6-15.9,11.2-23.7,12.6-13.9,2.4-29.6-5.3-40-13.7-16.3-13.3-18.3-29.8-17.2-49.4v-.2c1-1.8,2.1-3.5,3.1-5.2v.3c-3.6,31.1,13.3,61,47.7,64.6,11.5,1.2,18.7-4.6,28.3-9.7,7.8-4.2,18.2-12.6,25.2-13C390.8,248.1,376.1,254.8,362.7,262.1Zm22.7-73.4c12.6-12.2,30.8-9.2,46.8-5.8-13.4-2.6-28.2-3.9-40.2,2.2-5.1,2.5-8.6,6.3-11.6,10.3A33.4,33.4,0,0,1,385.4,188.7Zm5.1,1.4a33.9,33.9,0,0,1,14.9-2.4c-3.3.5-6.8,1.4-9.2,3a16.4,16.4,0,0,1,6.6.3c-8.4.8-16.4,3.5-23.1,10s-8.6,15.2-16.8,18.6c-13.5,5.7-35.7-6.9-44.9-15.5s-11.2-19.8-10-33h.1l3.6-4.9c-4.4,25,13.6,39.9,36.7,47C373.8,220.8,372.2,198,390.5,190.1Zm-65.8,0c8.8,8.3,31.8,21.9,44.9,16.6a13.8,13.8,0,0,0,4.1-2.4c-4.8,5.4-10.6,9-22.2,6.1-23.1-5.6-43.2-20.2-39.1-45.3l4-5.4C313.5,171.3,315.9,181.8,324.7,190.1Z"/><path class="cls-5" d="M221.4,123.1c-23.3,5.4-46.5,17.4-70.5,19.5-26.4,2.3-34.2-16.3-38.7-38.3-.4-2-1-4-1.4-6.1.9,4.9,1.7,9.8,2.9,14.3,4.8,18.3,13.6,32.5,36.8,30.6s47.1-14,70.4-19.4c20.4-4.8,115.1-18.7,101.3,25l-3.3,4.2c12.9-45.6-78.7-31.4-101-26.2s-46,17.2-69.5,18.8-31.7-12.7-36.5-30.8c-1.2-4.8-2.4-9.8-3.3-14.9.8,4.5,1.4,9.2,2.5,13.4,4.7,19,13.2,34.4,36.8,32.8s46.7-13.3,69.5-18.6,112-19.7,100.8,26.3h0l-3.4,4.4c10.3-47.3-74.8-33.6-100.4-27.5C192,136,169,147.6,145.8,148.6c-26,1.2-33.5-18-37.8-39.5-.5-2.6-1.1-5-1.6-7.6.3,1.9.5,3.9.8,5.7,4.2,22.3,11.3,43.1,38.2,42,23.1-1,46.1-12.5,68.4-17.8,26-6.2,110.4-19.9,100.3,27.7l-4,5.4c3.1-16.6-.2-25.3-17.1-30.5-26.2-8.2-56.4-4.6-82.6,1.6-21.8,5.2-44.7,16.4-67.4,16.8s-31.5-15.6-35.9-34.3c-1.1-4.9-2.2-9.7-3-14.7.9,5.7,1.8,11.7,3.2,17.2,4.5,17.8,13.1,32.7,35.3,32.4s45.5-11.5,67.2-16.7c26.1-6.1,56.2-9.7,82.3-1.6,17.1,5.3,20.4,14.1,17.3,30.8l-3.6,4.9c2.9-17.1-.1-26.6-17.8-32-25.8-7.9-55.5-4.2-81.1,1.9-21.4,5-44.2,15.9-66.4,15.7s-30.2-15-34.7-32.5c-1.5-6-2.7-12.1-3.7-18.3.8,5.4,1.6,11,2.8,16.2,4.3,18.6,12.5,34.9,35.2,35.2s44.9-10.5,66.2-15.5c25.6-6.1,55.2-9.8,80.8-1.9,17.9,5.4,20.8,15.1,18,32.2-7.7,10.8-15,21.8-21.8,33.1,2.1-19.2,1-34.1-20.5-39.4-23.9-5.8-49.9-2-73.4,3.2-19.1,4.3-41.1,13.1-60.9,9.6-22.1-3.8-29.5-23.3-33.1-43-1.1-6-2-11.8-2.7-17.5.8,6.6,1.5,13.9,3,20.9,3.8,18.8,11.5,36.7,32.5,40.4s41.7-5.2,60.7-9.4c23.4-5.3,49.4-9.1,73.1-3.3,21.7,5.2,22.8,20.2,20.6,39.5l-3,5.2c2.1-19.7,1.2-35.4-21-40.6s-48.9-1.5-72,3.7c-18.7,4.2-40.5,12.5-60,8.6s-28.5-22.2-32.2-41.1c-1.5-7.2-2.5-14.3-3.3-21,.7,5.8,1.3,12.2,2.4,18.4,3.5,20,10.8,40,32.8,44.5,19.4,4,41.2-4.3,59.8-8.5,23.1-5.2,48.5-9.2,71.9-3.8s23.1,21.1,21,40.8c-1,1.6-1.9,3.2-2.8,4.9,2-20.1,1.4-36.6-21.4-41.7s-48.1-.8-70.8,4.3c-18.4,4.2-40,12.1-59.1,7.8-22.7-5.1-29.7-26.7-33.1-47.6-.9-5.6-1.6-10.8-2.2-15.9.6,5.6,1.2,12,2.3,18.2,3.4,20.3,10.6,41,32.7,46.1,19.1,4.4,40.7-3.5,59-7.7,22.6-5.1,47.5-9.4,70.6-4.4s23.5,21.7,21.4,41.8l-2.8,5.1c2-20.4,1.6-37.8-21.9-42.6s-47.2,0-69.4,5.1c-18.1,4.2-39.6,11.8-58.3,7.1-21.9-5.5-29.2-26.3-32.7-46.7-.3-1.8-.6-3.6-.8-5.3-.7-4.6-1.3-8.8-1.8-13,2.9,24.6,6.3,58.5,35,65.8,18.7,4.7,40.1-2.9,58.3-7,22.1-5.2,46.5-9.9,69.2-5.3s23.9,22.3,21.9,42.8l-2.1,3.9c2-20.8,1.7-38.7-22.3-43.2s-46.5.9-68.3,6c-18,4.2-39.3,11.6-57.8,6.7-24-6.4-30.4-31-33.6-53.4-.6-4.4-1.3-8.5-1.7-12.6.6,5,1,10.7,1.9,16.1,3.3,21.6,10.2,44.5,33.2,50.7,18.5,4.9,39.7-2.4,57.7-6.7,21.8-5.1,45.6-10.4,68.1-6.2,24.2,4.5,24.4,22.6,22.4,43.5-1.5,23,.8,43.3,20.4,58.4a74.3,74.3,0,0,0,19.3,10.8c-8.4-.8-16.6,2.9-20.4,9.5a18.6,18.6,0,0,0-1.6,14.5,10.6,10.6,0,0,0,6.1,6.5,17.4,17.4,0,0,0,6.5.9,13.2,13.2,0,0,0,5.1-1.2,10.2,10.2,0,0,0,4.9-6.2,7.4,7.4,0,0,0-.8-6,8.3,8.3,0,0,0-6.6-3.2c-1.7,0-6.7,1.9-3,6.9-2.6-4.6,1.6-5.5,3-5.5a6.9,6.9,0,0,1,5.4,2.6,5.9,5.9,0,0,1,.6,4.9,8.6,8.6,0,0,1-4.1,5.2,14.6,14.6,0,0,1-10.5.2,8.8,8.8,0,0,1-5.2-5.6c-1.4-3.9-.1-9.7,2.4-13.5,6.1-9.5,20.1-8.3,27.9-6.8l4.8,1.1h.4a43.1,43.1,0,0,0,7.9,1.2c13.6,1.4,30.2,2.3,43.5-2.2,27.3-9.3,40.3,17.8,39.3,27.1-1.5,13.9-14.2,17-20,26.4,1.5.4,49.5-3.2,71.8,35.3,2.7-5.1,10.6-27,21.8-36.1,4.1-3.4,7.2-4.2,11.1-4.2s13.5,2,27.3,1.2c10.6-.6,13.5-5,15-8.7.4-.9.6-2,1-3.1,1.3-3.7-2.2-7.7-2.2-10.9s2.1-5.2,4.3-6.3a5.2,5.2,0,0,0,2.2-4.2c.2-1.5-.6-3.1-1.9-4.6a10.8,10.8,0,0,0-3.7-2.2c.5-.1,1.3.5,2.3-.1a8.6,8.6,0,0,0,4-9.2c-.9-.8-4.8-8.4-.5-11,1.4-.7,5.3-1.2,8.2-3.9s4-5.8,2.4-9.1-6.6-5-10.6-10.7c-2.6-3.7-10.4-12.2-11.7-18.6-.4-2,0-7.9.3-12.2s-1.2-15.9-4-24.7-4.7-12.5-8.4-19.8c-17.1-33-50.6-29.4-63.5-32.3-18.7-4.1-47.7-8.7-63.7,6.2-2.5,2.3-4.3,5.3-6.1,8.3a25.6,25.6,0,0,1,3.6-4.4c14.9-13.7,37.6-6.8,55.1-2.4-15.8-2.9-33.7-6.1-48.6.1-6.7,2.8-10,7.8-13.5,13.1l.9-1c15.3-15.2,39.3-7.4,57.5-3.3-19.3-3.9-42.9-10.6-58.6,5.4-6.2,6.4-8.3,16.7-17,20.6-13.3,5.9-36.6-6.4-46.1-14.7s-11.6-17.3-9-28.5l3.4-4.4c-3,10.9-.5,20.4,7.9,28.1s32.6,21.5,45.7,16c5.4-2.2,8.1-7.1,10.9-11.8a8.6,8.6,0,0,0-.7,1c-9.8,11.7-21.2,8.7-34.5,3.5-17.4-6.8-33.6-17.5-28.6-37.7l3.2-4.2c-4.3,13.8,2.4,23.6,14.1,30.7,10,6.2,30.1,16.8,42.2,9.8,3.7-2.2,6.1-5.8,8.3-9.5a21.4,21.4,0,0,1-6.7,6.7c-12.3,7.4-32.5-2.7-43-8.9s-18.5-16.1-14.2-29.7C337,104.5,241.5,118.5,221.4,123.1Zm61.8,82v-.3c6.9-11.3,14.2-22.4,21.8-33.1h0c-5.4,29,21.5,56.7,49.5,53.8,12.1-1.3,15.2-20,27.1-20.4,5-.2-6,9.4-11.4,14-1.9,1.6-5.3,4.7-8.2,4.6,5.4.7,8.4-3,12.6-6s10.5-5.6,15.8-5.2c1.3.1-6.3,3-11.2,5.2-7.4,3.5-10.3,15-39.2,22.9S300.1,214,300.1,214s-2.6-10-2.5-14.6c-.2,3.9-.2,18.7,8,29.8,9.7,12.9,19.4,20.1,42.9,11.3s23.2-11.8,29.6-15.2c2.6-1.4-7.2,8.2-11.1,11.7,4.2-3.4,10-5.1,15-6.2s-2,4.6-7,7.9c-12.1,7.9-23.1,27.9-38.1,28.9C301.8,269.9,280,237,283.2,205.1Zm-7.1,11.8c1-1.6,1.9-3.3,2.8-4.9v.2c-1.3,18.8-.3,35.5,14.3,49.3,11,10.3,28.5,19.3,44.2,17.1,7.2-1,18.2-9.8,24.9-12.5,11.7-4.7,7.5.1-4.7,5.8-6.9,3.3-13.4,7.7-21,9.2-15.9,3.2-33.6-5.1-45.2-15.4C276.5,252.3,275.2,235.7,276.1,216.9Zm84.1,76.6c-9.2,2.1-18.3,4.8-27.9,4.8-14.6.1-29.6-5.4-41.3-14.1-19.4-14.5-22-33.9-20.8-56.5l2.1-3.9c-2.9,32.3,10.4,58.5,44.1,67.9,19.8,5.6,38-2.6,57-5.8,2.4-.4,6.3-.1,10.9.4-4.4,1.8-10.3.9-14.2,4,4.7-2.4,9.7-1.9,14.7-1.1A234.6,234.6,0,0,0,360.2,293.5Zm20.3-13.3c-19.1,3.5-38.5,14.1-58.6,10.7-36-6.1-52-34.6-49.1-68,.9-1.7,1.8-3.4,2.8-5-1.2,18.1-.7,35,12.6,48.9,11,11.5,28.4,20.3,44.7,20,8.9-.2,17.1-3.9,25.5-6.5C372.2,276.2,384.6,279.5,380.5,280.2Zm-20-18.5c-6.8,3.7-16,11.3-23.7,12.6-14,2.4-29.7-5.3-40.1-13.7-16.3-13.3-18.3-29.7-17.2-49.4V211l3.1-5.2v.3c-3.6,31.1,13.3,61,47.7,64.6,11.5,1.2,18.8-4.6,28.3-9.7,7.8-4.2,18.2-12.6,25.3-13C388.5,247.7,373.8,254.4,360.5,261.7Zm22.6-73.4c12.6-12.2,30.8-9.2,46.8-5.7-13.4-2.7-28.2-3.9-40.2,2.1-5.1,2.6-8.6,6.4-11.6,10.3A36.5,36.5,0,0,1,383.1,188.3Zm5.1,1.4a33.9,33.9,0,0,1,14.9-2.4c-3.3.5-6.8,1.4-9.2,3a16.4,16.4,0,0,1,6.6.3c-8.4.8-16.4,3.5-23.1,10s-8.6,15.2-16.8,18.6c-13.5,5.7-35.7-6.9-44.9-15.5s-11.2-19.8-10-32.9h.1l3.6-5c-4.4,25.1,13.6,39.9,36.7,47C371.5,220.5,369.9,197.6,388.2,189.7Zm-65.8,0c8.8,8.3,31.8,21.9,44.9,16.7a16.6,16.6,0,0,0,4.1-2.5c-4.8,5.4-10.6,9-22.2,6.2-23.1-5.7-43.2-20.3-39.1-45.4,1.3-1.8,2.6-3.6,4-5.3C311.2,171,313.6,181.4,322.4,189.7Z"/><path class="cls-6" d="M218.9,122.8c-23.3,5.4-46.6,17.3-70.5,19.5-26.5,2.3-34.2-16.3-38.7-38.3-.4-2-1-4-1.4-6.1.9,4.8,1.6,9.7,2.8,14.2,4.8,18.4,13.6,32.6,36.9,30.6s47.1-13.9,70.3-19.3c20.4-4.8,115.2-18.8,101.3,25l-3.2,4.2c12.8-45.6-78.7-31.5-101-26.2s-46,17.1-69.6,18.8-31.7-12.7-36.4-30.9c-1.3-4.8-2.5-9.7-3.4-14.8.8,4.5,1.5,9.1,2.5,13.4,4.7,19,13.2,34.3,36.9,32.8S192,132.4,214.8,127s112-19.6,100.9,26.4h0c-1.2,1.4-2.3,2.9-3.4,4.4,10.2-47.4-74.8-33.6-100.5-27.5-22.4,5.3-45.4,16.8-68.6,17.9-25.9,1.2-33.5-18.1-37.7-39.5-.6-2.6-1.2-5-1.6-7.6.3,1.8.4,3.8.8,5.7,4.2,22.3,11.3,43.1,38.1,42,23.1-1,46.1-12.5,68.4-17.8,26.1-6.2,110.5-19.9,100.4,27.7l-4,5.4c3.1-16.6-.2-25.3-17.2-30.6-26.2-8.1-56.4-4.6-82.5,1.7-21.9,5.1-44.8,16.4-67.5,16.8s-31.4-15.6-35.8-34.4c-1.2-4.8-2.2-9.7-3-14.6.9,5.7,1.7,11.7,3.1,17.2,4.6,17.8,13.1,32.7,35.3,32.4s45.5-11.5,67.3-16.7c26-6.2,56.2-9.7,82.3-1.6,17.1,5.3,20.3,14.1,17.3,30.7l-3.7,5c2.9-17.1-.1-26.6-17.8-32-25.7-7.9-55.4-4.2-81.1,1.8-21.3,5.1-44.1,16-66.4,15.8s-30.1-15-34.6-32.5c-1.5-6-2.8-12.2-3.7-18.3.8,5.3,1.5,10.9,2.7,16.2,4.3,18.6,12.5,34.9,35.2,35.2s44.9-10.5,66.2-15.6c25.6-6,55.2-9.7,80.9-1.8,17.8,5.4,20.7,15.1,17.9,32.2-7.6,10.7-14.9,21.8-21.8,33,2.2-19.2,1-34-20.5-39.3-23.8-5.9-49.9-2.1-73.4,3.2-19,4.3-41,13-60.8,9.6-22.2-3.8-29.6-23.3-33.2-43-1.1-6.1-2-11.9-2.7-17.5.8,6.6,1.6,13.9,3,20.9,3.8,18.8,11.5,36.6,32.5,40.4s41.8-5.2,60.7-9.5c23.5-5.2,49.4-9.1,73.2-3.3,21.6,5.3,22.7,20.3,20.6,39.6-1.1,1.7-2.1,3.4-3.1,5.2,2.1-19.7,1.2-35.4-20.9-40.6s-49-1.5-72.1,3.7c-18.7,4.2-40.5,12.5-59.9,8.6S95.6,159.8,91.8,141c-1.4-7.2-2.4-14.3-3.3-21,.7,5.7,1.3,12.2,2.4,18.3,3.6,20,10.9,40.1,32.9,44.6,19.3,3.9,41.1-4.3,59.8-8.5,23-5.2,48.4-9.2,71.8-3.8s23.1,21.1,21,40.8c-.9,1.6-1.9,3.2-2.8,4.9,2.1-20.1,1.5-36.6-21.4-41.7s-48-.8-70.7,4.3c-18.4,4.1-40.1,12.1-59.2,7.8-22.6-5.1-29.6-26.8-33-47.6-.9-5.6-1.7-10.8-2.3-16,.7,5.7,1.3,12.1,2.3,18.2,3.5,20.4,10.7,41.1,32.8,46.2,19,4.3,40.6-3.6,59-7.7,22.6-5.1,47.5-9.5,70.5-4.4s23.5,21.7,21.5,41.8l-2.9,5.1c2.1-20.5,1.7-37.8-21.8-42.6s-47.2-.1-69.4,5.1c-18.2,4.1-39.6,11.7-58.4,7.1-21.9-5.5-29.1-26.3-32.6-46.7l-.9-5.3c-.6-4.6-1.3-8.8-1.7-13,2.8,24.6,6.2,58.5,35,65.7,18.7,4.8,40.1-2.8,58.2-7,22.2-5.1,46.5-9.8,69.2-5.2s24,22.2,22,42.7l-2.1,4c1.9-20.8,1.7-38.7-22.4-43.3-22.5-4.2-46.4.9-68.3,6.1-18,4.2-39.2,11.6-57.8,6.6-23.9-6.3-30.4-31-33.6-53.3-.6-4.4-1.2-8.5-1.7-12.6.6,5,1.1,10.7,1.9,16.1,3.4,21.6,10.3,44.5,33.2,50.6,18.5,5,39.7-2.3,57.7-6.6,21.8-5.1,45.7-10.4,68.1-6.2,24.2,4.5,24.4,22.6,22.5,43.5-1.5,23,.7,43.3,20.3,58.4A76.6,76.6,0,0,0,307,297.2c-8.5-.9-16.7,2.9-20.5,9.5-2.4,4.3-3.1,10.1-1.5,14.5a10.5,10.5,0,0,0,6,6.5,17.6,17.6,0,0,0,6.6.9,14.1,14.1,0,0,0,5-1.3,9.4,9.4,0,0,0,4.9-6.1,7.3,7.3,0,0,0-.8-6,7.9,7.9,0,0,0-6.6-3.2c-1.7,0-6.7,1.9-3,6.9-2.5-4.6,1.6-5.5,3-5.5s4.5,1.1,5.4,2.6a5.7,5.7,0,0,1,.6,4.8,7.9,7.9,0,0,1-4.1,5.3c-2.6,1.3-7.4,1.4-10.4.2a8.9,8.9,0,0,1-5.3-5.6c-1.4-4-.1-9.7,2.4-13.5,6.2-9.5,20.2-8.3,28-6.8l4.8,1.1h.3a44.1,44.1,0,0,0,7.9,1.1c13.6,1.5,30.2,2.4,43.5-2.1,27.3-9.4,40.3,17.7,39.3,27-1.5,14-14.2,17.1-19.9,26.5,1.4.4,49.4-3.2,71.7,35.2,2.7-5.1,10.6-26.9,21.8-36.1,4.1-3.3,7.2-4.2,11.1-4.1s13.5,2,27.3,1.2c10.6-.7,13.6-5,15-8.7.4-1,.6-2,1-3.1,1.4-3.7-2.1-7.7-2.2-10.9s2.2-5.2,4.4-6.4a5.2,5.2,0,0,0,2.1-4.2c.3-1.4-.6-3-1.8-4.5a8.5,8.5,0,0,0-3.8-2.2c.5-.1,1.3.5,2.4-.1a8.7,8.7,0,0,0,4-9.2c-.9-.8-4.8-8.4-.5-11.1,1.3-.6,5.3-1.1,8.2-3.8s3.9-5.8,2.3-9.1-6.5-5-10.5-10.7c-2.7-3.7-10.4-12.3-11.7-18.6-.4-2,0-8,.3-12.2s-1.3-15.9-4-24.8-4.7-12.4-8.5-19.7c-17.1-33-50.6-29.5-63.4-32.3-18.7-4.2-47.8-8.8-63.8,6.2a33.9,33.9,0,0,0-6,8.3,21.7,21.7,0,0,1,3.6-4.4c14.8-13.7,37.5-6.9,55.1-2.4-15.9-2.9-33.8-6.1-48.7.1-6.7,2.8-10,7.8-13.4,13.1l.9-1c15.3-15.3,39.3-7.5,57.4-3.4-19.2-3.8-42.9-10.6-58.6,5.5-6.2,6.4-8.3,16.7-17,20.6-13.3,5.9-36.5-6.4-46-14.7s-11.7-17.3-9.1-28.5l3.4-4.4c-3,10.8-.4,20.4,8,28.1s32.5,21.4,45.6,16c5.5-2.3,8.2-7.1,11-11.9l-.8,1c-9.7,11.8-21.2,8.8-34.5,3.6-17.3-6.8-33.6-17.5-28.6-37.7l3.3-4.2c-4.4,13.8,2.4,23.5,14,30.7,10,6.2,30.2,16.7,42.2,9.8,3.8-2.2,6.2-5.8,8.4-9.6a21.7,21.7,0,0,1-6.7,6.8c-12.4,7.3-32.5-2.7-43-8.9s-18.6-16.1-14.3-29.7C334.4,104.2,239,118.1,218.9,122.8Zm61.8,82v-.4c6.8-11.2,14.1-22.3,21.8-33.1v.2c-5.4,28.9,21.4,56.7,49.5,53.7,12-1.2,15.2-19.9,27.1-20.3,5-.2-6.1,9.4-11.4,14-2,1.6-5.4,4.7-8.2,4.6,5.3.7,8.3-3,12.6-6.1s10.4-5.6,15.8-5.1c1.3.1-6.4,3-11.3,5.2-7.3,3.4-10.3,14.9-39.2,22.8s-39.8-26.6-39.8-26.6S295,203.6,295,199c-.2,4-.2,18.7,8.1,29.8,9.6,13,19.4,20.2,42.8,11.4s23.3-11.8,29.6-15.3c2.6-1.4-7.2,8.3-11,11.8,4.1-3.4,9.9-5.1,14.9-6.2s-2,4.6-7,7.8c-12.1,7.9-23.1,28-38.1,29C299.3,269.6,277.4,236.7,280.7,204.8Zm-7.1,11.8c.9-1.7,1.8-3.3,2.8-4.9h0c-1.3,18.8-.4,35.6,14.3,49.4,10.9,10.3,28.5,19.3,44.1,17.1,7.3-1.1,18.2-9.9,24.9-12.5,11.8-4.7,7.5.1-4.6,5.8-6.9,3.3-13.4,7.7-21.1,9.2-15.9,3.1-33.6-5.1-45.1-15.4C274,252,272.6,235.4,273.6,216.6Zm84.1,76.6c-9.2,2.1-18.4,4.8-27.9,4.8-14.7,0-29.7-5.5-41.3-14.1-19.4-14.5-22.1-33.9-20.9-56.5.7-1.3,1.4-2.6,2.2-3.9-2.9,32.3,10.4,58.5,44,67.9,19.8,5.6,38-2.7,57-5.8,2.4-.4,6.4-.2,10.9.3-4.4,1.9-10.3,1-14.1,4.1,4.6-2.4,9.6-2,14.6-1.2C374,289.9,365.9,291.3,357.7,293.2Zm20.2-13.3c-19.1,3.4-38.4,14.1-58.5,10.7-36-6.1-52-34.6-49.2-68l2.8-5.1c-1.2,18.2-.7,35,12.7,49,10.9,11.5,28.4,20.3,44.6,19.9,9-.1,17.1-3.8,25.6-6.4C369.6,275.9,382,279.2,377.9,279.9Zm-20-18.5c-6.7,3.6-16,11.2-23.7,12.6-13.9,2.4-29.7-5.3-40.1-13.7-16.3-13.3-18.2-29.8-17.1-49.4v-.2c1-1.8,2-3.5,3.1-5.2a.4.4,0,0,0-.1.3c-3.5,31.1,13.3,61,47.8,64.6,11.5,1.2,18.7-4.6,28.3-9.7,7.8-4.2,18.1-12.6,25.2-13C386,247.4,371.3,254.1,357.9,261.4ZM380.6,188c12.5-12.2,30.8-9.2,46.8-5.8-13.5-2.6-28.3-3.9-40.2,2.2-5.1,2.5-8.6,6.3-11.6,10.3A30,30,0,0,1,380.6,188Zm5.1,1.4a33.5,33.5,0,0,1,14.8-2.4c-3.3.5-6.8,1.4-9.1,3a16.4,16.4,0,0,1,6.6.3c-8.5.8-16.4,3.5-23.1,10s-8.7,15.2-16.8,18.6c-13.6,5.7-35.7-6.9-45-15.5s-11.1-19.8-9.9-33h0l3.6-4.9c-4.4,25,13.6,39.9,36.8,47C369,220.1,367.4,197.3,385.7,189.4Zm-65.8,0c8.7,8.3,31.7,21.9,44.8,16.6a13.8,13.8,0,0,0,4.1-2.4c-4.7,5.4-10.5,9-22.1,6.1-23.1-5.6-43.3-20.2-39.2-45.3l4-5.4C308.6,170.6,311.1,181.1,319.9,189.4Z"/><path class="cls-7" d="M216.7,122.5c-23.3,5.4-46.6,17.3-70.5,19.4-26.5,2.4-34.2-16.2-38.7-38.2-.4-2.1-1-4-1.4-6.1.9,4.8,1.6,9.7,2.8,14.2,4.8,18.4,13.6,32.6,36.9,30.6s47.1-13.9,70.3-19.4c20.4-4.7,115.2-18.7,101.3,25.1l-3.2,4.2c12.8-45.6-78.7-31.5-101-26.2s-46,17.1-69.6,18.7-31.7-12.7-36.4-30.8c-1.3-4.8-2.5-9.7-3.4-14.8.8,4.5,1.5,9.1,2.5,13.4,4.7,19,13.2,34.3,36.9,32.7s46.6-13.2,69.4-18.6,112-19.6,100.9,26.4h0l-3.4,4.5c10.2-47.4-74.8-33.6-100.5-27.5-22.3,5.3-45.4,16.8-68.6,17.9-25.9,1.2-33.5-18.1-37.7-39.5-.6-2.6-1.2-5.1-1.6-7.7.3,1.9.4,3.9.8,5.8,4.2,22.3,11.3,43.1,38.1,41.9,23.1-1,46.1-12.4,68.4-17.7,26.1-6.2,110.5-19.9,100.4,27.7l-4,5.3c3.1-16.5-.2-25.2-17.2-30.5-26.2-8.1-56.4-4.6-82.5,1.6-21.9,5.2-44.8,16.4-67.5,16.8s-31.4-15.6-35.8-34.3c-1.2-4.8-2.2-9.7-3-14.6a167.9,167.9,0,0,0,3.2,17.2c4.5,17.8,13,32.6,35.2,32.3s45.5-11.5,67.3-16.6c26-6.2,56.2-9.8,82.3-1.7,17.1,5.3,20.3,14.1,17.3,30.8l-3.7,5c2.9-17.1-.1-26.6-17.8-32.1-25.7-7.8-55.4-4.2-81.1,1.9-21.3,5.1-44.1,16-66.4,15.7s-30.1-15-34.6-32.5a183.3,183.3,0,0,1-3.7-18.2c.8,5.3,1.5,10.9,2.7,16.2,4.3,18.5,12.5,34.8,35.2,35.2s45-10.6,66.2-15.6c25.6-6,55.2-9.7,80.9-1.9,17.8,5.5,20.7,15.1,17.9,32.3-7.6,10.7-14.9,21.7-21.8,33,2.2-19.2,1-34-20.5-39.3-23.8-5.9-49.9-2.1-73.4,3.2-19,4.3-41,13-60.8,9.6-22.2-3.8-29.6-23.3-33.2-43.1q-1.6-9-2.7-17.4c.8,6.5,1.6,13.9,3,20.9,3.8,18.7,11.5,36.6,32.5,40.3s41.8-5.1,60.7-9.4c23.5-5.3,49.4-9.1,73.2-3.3,21.6,5.3,22.7,20.3,20.6,39.6l-3.1,5.1c2.1-19.6,1.2-35.3-20.9-40.5s-49-1.5-72.1,3.6c-18.7,4.2-40.5,12.6-59.9,8.7s-28.5-22.3-32.3-41.1c-1.4-7.2-2.4-14.3-3.3-21,.7,5.7,1.3,12.1,2.4,18.3,3.6,20,10.9,40,32.9,44.5,19.3,4,41.1-4.3,59.8-8.5,23-5.1,48.4-9.2,71.8-3.7s23.2,21,21,40.7c-.9,1.7-1.9,3.3-2.8,4.9,2.1-20,1.5-36.5-21.4-41.6s-48-.9-70.7,4.2c-18.4,4.2-40.1,12.2-59.1,7.9-22.7-5.2-29.7-26.8-33.1-47.6-.9-5.6-1.7-10.9-2.3-16,.7,5.7,1.3,12.1,2.3,18.2,3.5,20.4,10.7,41.1,32.8,46.1,19,4.4,40.6-3.5,59-7.7,22.6-5.1,47.5-9.4,70.5-4.3s23.5,21.7,21.5,41.8l-2.9,5c2.1-20.4,1.7-37.7-21.8-42.6s-47.2,0-69.4,5.1c-18.2,4.2-39.6,11.8-58.4,7.1-21.9-5.4-29.1-26.2-32.6-46.7l-.9-5.3c-.6-4.5-1.2-8.7-1.7-12.9,2.8,24.6,6.2,58.4,35,65.7,18.7,4.7,40.1-2.8,58.2-7,22.2-5.1,46.5-9.9,69.2-5.2s24,22.2,22,42.7l-2.1,3.9c1.9-20.7,1.7-38.6-22.4-43.2-22.5-4.3-46.4.9-68.3,6.1-18,4.2-39.2,11.6-57.8,6.6-23.9-6.4-30.4-31-33.6-53.3-.6-4.5-1.2-8.5-1.7-12.6.6,5,1.1,10.6,1.9,16.1C87,168,93.9,190.8,116.8,197c18.6,5,39.8-2.4,57.7-6.6,21.8-5.2,45.7-10.4,68.1-6.2,24.2,4.5,24.4,22.6,22.5,43.4-1.5,23.1.7,43.4,20.3,58.5a79.8,79.8,0,0,0,19.4,10.8c-8.5-.9-16.7,2.9-20.5,9.5-2.4,4.3-3.1,10.1-1.5,14.4a10,10,0,0,0,6,6.5,14.3,14.3,0,0,0,6.6.9,13.2,13.2,0,0,0,5.1-1.2,9.9,9.9,0,0,0,4.8-6.1,7.3,7.3,0,0,0-.8-6,8.2,8.2,0,0,0-6.6-3.3c-1.6,0-6.7,2-3,7-2.5-4.6,1.6-5.5,3-5.5s4.5,1.1,5.4,2.6a6,6,0,0,1,.7,4.8,8.4,8.4,0,0,1-4.2,5.2c-2.6,1.4-7.4,1.5-10.4.3a8.9,8.9,0,0,1-5.3-5.6c-1.4-4-.1-9.7,2.4-13.6,6.2-9.4,20.2-8.3,28-6.8,1.6.5,3.2.8,4.8,1.2h.3a36.9,36.9,0,0,0,7.9,1.2c13.6,1.4,30.2,2.4,43.5-2.2,27.3-9.3,40.3,17.8,39.3,27.1-1.5,14-14.2,17-19.9,26.4,1.4.4,49.4-3.1,71.7,35.3,2.7-5.1,10.6-26.9,21.8-36.1,4.1-3.3,7.2-4.2,11.1-4.1s13.5,2,27.3,1.1c10.6-.6,13.6-5,15-8.6a28.1,28.1,0,0,0,1-3.1c1.4-3.8-2.1-7.7-2.2-10.9s2.2-5.2,4.4-6.4a5.2,5.2,0,0,0,2.1-4.2c.3-1.4-.6-3.1-1.8-4.5A8.5,8.5,0,0,0,537,310c.5-.1,1.3.5,2.4-.2a8.6,8.6,0,0,0,4-9.1c-.9-.8-4.8-8.5-.5-11.1,1.3-.6,5.3-1.2,8.2-3.9s3.9-5.8,2.3-9-6.5-5-10.5-10.7c-2.7-3.7-10.4-12.3-11.7-18.6-.4-2,0-8,.3-12.2s-1.2-16-4-24.8-4.7-12.4-8.5-19.7c-17.1-33-50.6-29.5-63.4-32.3-18.7-4.2-47.8-8.8-63.8,6.1a36.6,36.6,0,0,0-6,8.4,21.7,21.7,0,0,1,3.6-4.4c14.8-13.7,37.5-6.9,55.1-2.4-15.9-2.9-33.8-6.2-48.7.1-6.7,2.7-10,7.7-13.4,13l.9-.9c15.3-15.3,39.3-7.5,57.4-3.4-19.2-3.8-42.9-10.6-58.6,5.5-6.2,6.4-8.3,16.6-17,20.5-13.3,6-36.5-6.4-46-14.7S307.4,169,310,157.8l3.4-4.5c-3,10.9-.4,20.4,8,28.1s32.5,21.5,45.6,16.1c5.5-2.3,8.2-7.1,11-11.9l-.8,1c-9.7,11.8-21.2,8.8-34.5,3.5-17.3-6.8-33.6-17.4-28.6-37.7l3.3-4.1c-4.4,13.8,2.4,23.5,14,30.7,10,6.2,30.2,16.7,42.2,9.7,3.8-2.1,6.2-5.7,8.4-9.5a21.7,21.7,0,0,1-6.7,6.8c-12.4,7.3-32.5-2.7-43-9s-18.6-16-14.3-29.6C332.2,103.9,236.8,117.8,216.7,122.5Zm61.8,81.9v-.3c6.8-11.3,14.1-22.3,21.8-33.1h0c-5.4,29,21.4,56.7,49.5,53.8,12-1.3,15.2-20,27.1-20.4,5-.1-6.1,9.5-11.4,14-2,1.7-5.4,4.8-8.2,4.6,5.3.8,8.3-2.9,12.6-6s10.4-5.6,15.8-5.2c1.3.1-6.4,3-11.3,5.3-7.3,3.4-10.3,14.9-39.2,22.8s-39.8-26.6-39.8-26.6-2.6-10.1-2.6-14.7c-.2,4-.2,18.7,8.1,29.8,9.7,13,19.4,20.1,42.8,11.4s23.3-11.8,29.6-15.3c2.6-1.4-7.2,8.3-11,11.7,4.1-3.4,9.9-5.1,14.9-6.1s-2,4.6-7,7.8c-12.1,7.9-23.1,27.9-38.1,28.9C297.1,269.3,275.3,236.3,278.5,204.4Zm-7.1,11.9,2.8-5v.2c-1.3,18.8-.4,35.6,14.3,49.3,10.9,10.3,28.5,19.4,44.1,17.2,7.3-1.1,18.2-9.9,24.9-12.6,11.8-4.7,7.5.1-4.6,5.9-6.9,3.2-13.4,7.7-21,9.2-16,3.1-33.6-5.1-45.2-15.5C271.8,251.6,270.4,235.1,271.4,216.3Zm84.1,76.6c-9.2,2.1-18.4,4.8-27.9,4.8-14.7,0-29.7-5.5-41.3-14.2-19.4-14.4-22.1-33.9-20.9-56.4.7-1.3,1.4-2.7,2.2-4-2.9,32.3,10.4,58.5,44,68,19.8,5.5,38-2.7,57-5.9,2.4-.4,6.4-.1,10.9.4-4.4,1.9-10.2,1-14.1,4.1,4.6-2.4,9.6-2,14.6-1.2C371.8,289.6,363.7,291,355.5,292.9Zm20.2-13.3c-19.1,3.4-38.4,14.1-58.5,10.7-36-6.1-52-34.6-49.2-68l2.8-5.1c-1.2,18.2-.7,35,12.7,49,10.9,11.4,28.4,20.3,44.6,19.9,9-.2,17.1-3.9,25.6-6.4C367.4,275.5,379.8,278.9,375.7,279.6Zm-20-18.5c-6.7,3.6-16,11.2-23.7,12.5-13.9,2.4-29.7-5.2-40.1-13.7-16.3-13.2-18.2-29.7-17.1-49.4v-.2c1-1.7,2-3.4,3.1-5.1a.4.4,0,0,0-.1.3c-3.5,31.1,13.3,60.9,47.8,64.5,11.5,1.2,18.7-4.5,28.3-9.7,7.8-4.1,18.1-12.5,25.2-13C383.8,247.1,369.1,253.7,355.7,261.1Zm22.7-73.4c12.5-12.2,30.8-9.2,46.8-5.8-13.5-2.6-28.3-3.9-40.2,2.1-5.1,2.6-8.6,6.4-11.6,10.3A31.9,31.9,0,0,1,378.4,187.7Zm5.1,1.4a33.5,33.5,0,0,1,14.8-2.4c-3.3.5-6.8,1.3-9.1,3a14.8,14.8,0,0,1,6.6.3c-8.5.7-16.4,3.5-23.1,10s-8.7,15.1-16.8,18.6c-13.5,5.7-35.7-7-45-15.5s-11.1-19.8-9.9-33h0l3.6-5c-4.4,25.1,13.6,40,36.8,47C366.8,219.8,365.2,197,383.5,189.1Zm-65.8,0c8.7,8.3,31.8,21.9,44.8,16.6a14.1,14.1,0,0,0,4.1-2.5c-4.7,5.5-10.5,9.1-22.1,6.2-23.1-5.7-43.3-20.3-39.2-45.3l4-5.4C306.5,170.3,308.9,180.7,317.7,189.1Z"/></svg>